<svg width="80" height="80" viewBox="0 0 80 80" fill="none" xmlns="http://www.w3.org/2000/svg">
<path d="M21.5629 56.9231H4.63978C4.00901 56.9231 3.45516 57.3077 3.22439 57.8769C2.97824 58.4615 3.1167 59.1231 3.54747 59.5538L20.4705 76.4769C20.7629 76.7692 21.1629 76.9231 21.5629 76.9231C21.7629 76.9231 21.9629 76.8923 22.1475 76.8154C22.7167 76.5692 23.1013 76.0154 23.1013 75.3846V58.4615C23.1013 58.0615 22.9321 57.6769 22.6552 57.3846C22.5127 57.2393 22.3428 57.1236 22.1553 57.0444C21.9678 56.9652 21.7664 56.9239 21.5629 56.9231ZM32.7813 55.6908C32.9914 55.9017 33.2583 56.047 33.5494 56.109C33.8406 56.171 34.1435 56.147 34.4213 56.04L39.3936 54.1262L34.3444 49.0785L32.4321 54.0508C32.2136 54.6185 32.3505 55.2615 32.7813 55.6908ZM75.5752 15.2308L73.2429 12.8985C71.7259 11.3785 69.2121 11.2077 67.4644 12.3754C67.8644 12.6154 68.2444 12.8877 68.5829 13.2185L75.2105 19.8446C75.5659 20.2015 75.8521 20.5985 76.1029 21.0108C76.7016 20.1363 76.9766 19.0804 76.8802 18.025C76.7839 16.9696 76.3224 15.9808 75.5752 15.2292V15.2308Z" fill="#4F3D8E"/>
<path d="M44.7524 55.1323L44.9186 55.2984L35.5263 58.9123C34.9924 59.1154 34.437 59.2184 33.8693 59.2184C33.121 59.2172 32.3843 59.0341 31.7224 58.6851C31.0605 58.3361 30.4932 57.8316 30.0695 57.2148C29.6457 56.5981 29.3781 55.8877 29.2896 55.1446C29.2012 54.4016 29.2945 53.6482 29.5616 52.9492L33.1739 43.5554L33.3386 43.7215C33.3939 42.6138 33.8293 41.5646 34.6063 40.7446L49.1909 26.16H10.7924C10.3844 26.16 9.99307 25.9979 9.70455 25.7094C9.41603 25.4209 9.25394 25.0295 9.25394 24.6215C9.25394 24.2135 9.41603 23.8222 9.70455 23.5337C9.99307 23.2451 10.3844 23.0831 10.7924 23.0831H50.7924C51.2001 23.0831 51.5663 23.2492 51.8401 23.5077L58.4847 16.8646V4.61537C58.4847 3.76921 57.7924 3.0769 56.9463 3.0769H4.63856C3.79241 3.0769 3.1001 3.76921 3.1001 4.61537V54.1184C3.58471 53.9461 4.1001 53.8461 4.63856 53.8461H21.5616C22.7893 53.8461 23.9493 54.3292 24.8293 55.2092C25.7201 56.1508 26.177 57.2831 26.177 58.4615V75.3846C26.177 75.92 26.0739 76.4354 25.9001 76.9231H56.9463C57.7924 76.9231 58.4847 76.2308 58.4847 75.3846V43.1046L47.7832 53.8061C46.9063 54.6369 45.8539 55.0738 44.7509 55.1323H44.7524ZM10.7939 32.3154H35.4078C35.8158 32.3154 36.2071 32.4775 36.4956 32.766C36.7842 33.0545 36.9463 33.4458 36.9463 33.8538C36.9463 34.2619 36.7842 34.6532 36.4956 34.9417C36.2071 35.2302 35.8158 35.3923 35.4078 35.3923H10.7924C10.3844 35.3923 9.99307 35.2302 9.70455 34.9417C9.41603 34.6532 9.25394 34.2619 9.25394 33.8538C9.25394 33.4458 9.41603 33.0545 9.70455 32.766C9.99307 32.4775 10.3844 32.3154 10.7924 32.3154H10.7939ZM10.7924 13.8538H50.7924C51.2004 13.8538 51.5917 14.0159 51.8803 14.3044C52.1688 14.593 52.3309 14.9843 52.3309 15.3923C52.3309 15.8003 52.1688 16.1916 51.8803 16.4801C51.5917 16.7687 51.2004 16.9308 50.7924 16.9308H10.7924C10.3844 16.9308 9.99307 16.7687 9.70455 16.4801C9.41603 16.1916 9.25394 15.8003 9.25394 15.3923C9.25394 14.9843 9.41603 14.593 9.70455 14.3044C9.99307 14.0159 10.3844 13.8538 10.7924 13.8538ZM10.7924 44.6231C10.3844 44.6231 9.99307 44.461 9.70455 44.1725C9.41603 43.8839 9.25394 43.4926 9.25394 43.0846C9.25394 42.6766 9.41603 42.2853 9.70455 41.9967C9.99307 41.7082 10.3844 41.5461 10.7924 41.5461H30.6355C31.0435 41.5461 31.4348 41.7082 31.7233 41.9967C32.0119 42.2853 32.1739 42.6766 32.1739 43.0846C32.1739 43.4926 32.0119 43.8839 31.7233 44.1725C31.4348 44.461 31.0435 44.6231 30.6355 44.6231H10.7939H10.7924Z" fill="#4F3D8E"/>
<path d="M65.3633 16.5231C64.7787 15.9538 63.7633 15.9538 63.1787 16.5231L36.8402 42.8615C36.5633 43.1538 36.394 43.5384 36.394 43.9538C36.394 44.3692 36.5633 44.7538 36.8402 45.0461L43.4248 51.6307C43.7325 51.9231 44.1171 52.0769 44.5171 52.0769C44.9171 52.0769 45.3017 51.9231 45.6094 51.6307L71.9479 25.2923C72.5479 24.6923 72.5479 23.7077 71.9479 23.1077L65.3633 16.5231Z" fill="#4F3D8E"/>
</svg>
