<svg width="75" height="40" viewBox="0 0 75 40" fill="none" xmlns="http://www.w3.org/2000/svg">
<path fill-rule="evenodd" clip-rule="evenodd" d="M2.5 0.000152588H60C63.09 0.000152588 65.9525 0.920153 68.33 2.50015H62.5C59.75 2.50015 57.5 4.75015 57.5 7.50015V17.5002C57.5 20.2502 59.75 22.5002 62.5 22.5002H75V30.0002C75 31.4077 73.9075 32.5002 72.5 32.5002H67.05C66.5348 31.0429 65.5819 29.7804 64.3217 28.8853C63.0616 27.9903 61.5556 27.5066 60.01 27.5002C58.4639 27.506 56.9574 27.9894 55.6968 28.8844C54.4361 29.7795 53.4829 31.0425 52.9675 32.5002H19.5425C19.0271 31.0425 18.0739 29.7795 16.8132 28.8844C15.5526 27.9894 14.0461 27.506 12.5 27.5002C10.9543 27.5066 9.44843 27.9903 8.18825 28.8853C6.92808 29.7804 5.97521 31.0429 5.46 32.5002H2.5C1.0925 32.5002 0 31.4077 0 30.0002V2.50015C0 1.09515 1.0925 0.000152588 2.5 0.000152588ZM7.5 2.50015C4.75 2.50015 2.5 4.75015 2.5 7.50015V17.5002C2.5 20.2502 4.75 22.5002 7.5 22.5002H22.5C25.25 22.5002 27.5 20.2502 27.5 17.5002V7.50015C27.5 4.75015 25.25 2.50015 22.5 2.50015H7.5ZM35 2.50015C32.25 2.50015 30 4.75015 30 7.50015V17.5002C30 20.2502 32.25 22.5002 35 22.5002H50C52.75 22.5002 55 20.2502 55 17.5002V7.50015C55 4.75015 52.75 2.50015 50 2.50015H35ZM7.5 5.00015H22.5C23.9075 5.00015 25 6.09265 25 7.50015V17.5002C25 18.9077 23.9075 20.0002 22.5 20.0002H7.5C6.0925 20.0002 5 18.9077 5 17.5002V7.50015C5 6.09265 6.0925 5.00015 7.5 5.00015ZM35 5.00015H50C51.4075 5.00015 52.5 6.09265 52.5 7.50015V17.5002C52.5 18.9077 51.4075 20.0002 50 20.0002H35C33.5925 20.0002 32.5 18.9077 32.5 17.5002V7.50015C32.5 6.09265 33.5925 5.00015 35 5.00015ZM62.5 5.00015H71.1975C73.6553 7.75019 75.0097 11.3118 75 15.0002V20.0002H62.5C61.0925 20.0002 60 18.9077 60 17.5002V7.50015C60 6.09515 61.0925 5.00015 62.5 5.00015ZM12.5 30.0002C15.275 30.0002 17.5 32.2252 17.5 35.0002C17.5 37.7752 15.275 40.0002 12.5 40.0002C9.725 40.0002 7.5 37.7752 7.5 35.0002C7.5 32.2252 9.725 30.0002 12.5 30.0002ZM60.01 30.0002C62.785 30.0002 65.01 32.2252 65.01 35.0002C65.01 37.7752 62.785 40.0002 60.01 40.0002C57.235 40.0002 55.01 37.7752 55.01 35.0002C55.01 32.2252 57.235 30.0002 60.01 30.0002ZM12.5 33.745C12.1685 33.745 11.8505 33.8768 11.6161 34.1112C11.3817 34.3456 11.25 34.6634 11.25 34.995C11.25 35.3265 11.3817 35.6443 11.6161 35.8788C11.8505 36.1132 12.1685 36.245 12.5 36.245C12.8315 36.245 13.1495 36.1132 13.3839 35.8788C13.6183 35.6443 13.75 35.3265 13.75 34.995C13.75 34.6634 13.6183 34.3456 13.3839 34.1112C13.1495 33.8768 12.8315 33.745 12.5 33.745ZM60.01 33.745C59.6785 33.745 59.3605 33.8768 59.1261 34.1112C58.8917 34.3456 58.76 34.6634 58.76 34.995C58.76 35.3265 58.8917 35.6443 59.1261 35.8788C59.3605 36.1132 59.6785 36.245 60.01 36.245C60.3415 36.245 60.6595 36.1132 60.8939 35.8788C61.1283 35.6443 61.26 35.3265 61.26 34.995C61.26 34.6634 61.1283 34.3456 60.8939 34.1112C60.6595 33.8768 60.3415 33.745 60.01 33.745Z" fill="#D8107D"/>
</svg>
