<svg width="80" height="80" viewBox="0 0 80 80" fill="none" xmlns="http://www.w3.org/2000/svg">
<path d="M74.0002 38.25H26.1252C23.7502 38.25 21.7502 40.25 21.7502 42.625V71.875C21.7502 74.25 23.7502 76.25 26.1252 76.25H74.0002C76.3752 76.25 78.3752 74.25 78.3752 71.875V42.625C78.3752 40.125 76.5002 38.25 74.0002 38.25ZM52.2502 61.5H59.6252V64.375H52.2502V61.5ZM35.8752 57.375H32.7502C30.6252 57.375 28.8752 55.75 28.8752 53.625H34.5002C34.8752 54 35.3752 54.25 35.8752 54.375H39.8752C40.3752 54.25 40.8752 54 41.2502 53.625H46.8752C46.7502 55.75 45.0002 57.375 43.0002 57.375H35.8752ZM36.2502 61.5V64.375H28.8752V61.5H36.2502ZM34.8752 52V48.375C34.8752 47.75 35.3752 47.125 36.1252 47.125H39.7502C40.3752 47.125 41.0002 47.625 41.0002 48.375V52C41.0002 52.625 40.5002 53.25 39.7502 53.25H36.1252C35.3752 53.125 34.8752 52.625 34.8752 52ZM40.5002 61.5H47.8752V64.375H40.5002V61.5ZM46.8752 52.25H42.0002V48.625V48.125H46.8752V52.25ZM32.7502 43H43.0002C45.1252 43 46.8752 44.625 46.8752 46.75H41.2502C40.8752 46.375 40.3752 46.125 39.8752 46.125H35.8752C35.3752 46.25 34.8752 46.5 34.5002 46.75H28.8752C29.0002 44.625 30.7502 43 32.7502 43ZM28.8752 48H33.7502V52.125H28.8752V48ZM71.2502 71.5H28.8752V68.625H71.2502V71.5ZM71.2502 64.25H63.8752V61.375H71.2502V64.25ZM57.7502 12.375L56.1252 6.875C55.3752 4.5 53.0002 3.25 50.6252 3.875L4.75024 17.75C2.37524 18.5 1.12524 20.875 1.75024 23.25L3.37524 28.75L57.7502 12.375Z" fill="#4F3D8E"/>
<path d="M64.625 35H26.125C21.875 35 18.5 38.375 18.5 42.625V53.5L15.875 54.25C13.5 55 11.125 53.625 10.375 51.25L5.375 35.25L59.625 18.75L64.625 35C64.625 34.875 64.625 34.875 64.625 35Z" fill="#4F3D8E"/>
</svg>
