<svg width="14" height="10" viewBox="0 0 14 10" fill="none" xmlns="http://www.w3.org/2000/svg">
<path d="M13.5587 0.453533C12.9703 -0.151178 12.0163 -0.151178 11.4279 0.453533L5.76731 6.26056L2.57215 2.97693C1.98373 2.37227 1.02973 2.37227 0.441306 2.97693C-0.147102 3.58164 -0.147102 4.56209 0.441306 5.1668L4.65175 9.4938C4.6676 9.51168 4.68394 9.52923 4.70074 9.5465C4.99495 9.84885 5.38055 10 5.76615 10C5.86933 10 5.97252 9.98918 6.07395 9.96754C6.35238 9.90856 6.6178 9.76845 6.83385 9.54644C6.85026 9.52956 6.8662 9.51246 6.88169 9.49503L13.5587 2.64335C14.1471 2.03864 14.1471 1.05819 13.5587 0.453533Z" fill="#fff"/>
</svg>
