<svg width="80" height="80" viewBox="0 0 80 80" fill="none" xmlns="http://www.w3.org/2000/svg">
<path d="M69 61.1667L67 64.3333H70.3333V61.1667C70.3333 60.3333 70.3333 59.3333 70.5 58.5H70.3333C69.8333 59.3333 69.5 60.3333 69 61.1667Z" fill="#4F3D8E"/>
<path d="M67.5002 47.5C66.0002 47.1666 64.5002 46.8333 63.0002 46.8333C54.1668 46.8333 46.8335 54 46.8335 63C46.8335 64.5 47.0002 66 47.5002 67.5C49.5002 74.3333 55.8335 79.1666 63.0002 79.1666C71.8335 79.1666 79.1668 72 79.1668 63C79.1668 55.8333 74.3335 49.5 67.5002 47.5ZM62.1668 70.3333H51.8335V68.3333L53.6668 66.6666C56.8335 63.8333 58.3335 62.1666 58.5002 60.5C58.5002 59.3333 57.8335 58.3333 56.1668 58.3333C54.8335 58.3333 53.8335 59 53.0002 59.5L52.0002 57C53.1668 56.1666 54.8335 55.5 56.8335 55.5C60.1668 55.5 62.0002 57.5 62.0002 60C62.0002 62.5 60.1668 64.3333 58.1668 66.3333L56.6668 67.5H62.1668V70.3333ZM73.5002 67V70.5H70.3335V67H63.8335V64.8333L69.3335 56H73.5002V64.5H75.1668V67H73.5002Z" fill="#4F3D8E"/>
<path d="M63.0002 43.1667C63.8335 43.1667 64.6668 43.1667 65.5002 43.3333C65.6668 43.3333 65.8335 43.3333 66.1668 43.5C66.3335 43.5 66.6668 43.5 66.8335 43.6667C67.6668 40.6667 68.1668 37.6667 68.1668 34.5C68.1668 16 53.1668 1 34.6668 1C16.1668 1 0.833496 15.8333 0.833496 34.3333C0.833496 52.8333 15.8335 68 34.3335 68C37.5002 68 40.5002 67.5 43.5002 66.6667C43.5002 66.5 43.5002 66.3333 43.3335 66C43.3335 65.8333 43.3335 65.6667 43.1668 65.3333C43.0002 64.5 43.0002 63.6667 43.0002 62.8333C43.1668 52.1667 52.1668 43.1667 63.0002 43.1667ZM60.1668 32.6667H65.3335V36.3333H60.1668V32.6667ZM55.0002 11.1667L57.5002 13.6667L53.8335 17.3333L51.3335 14.8333L55.0002 11.1667ZM8.66683 36.1667H3.3335V32.5H8.50016V36.1667H8.66683ZM32.6668 3.33333H36.3335V8.5H32.6668V3.33333ZM13.8335 57.6667L11.1668 55L14.8335 51.3333L17.3335 53.8333L13.8335 57.6667ZM14.8335 17.5L11.1668 13.8333L13.6668 11.3333L17.3335 15L14.8335 17.5ZM36.1668 65.5H32.5002V60.3333H36.1668V65.5ZM47.1668 36.1667H32.5002V14.3333H36.1668V32.6667H47.1668V36.1667Z" fill="#4F3D8E"/>
</svg>
