<svg width="30" height="30" viewBox="0 0 30 30" fill="none" xmlns="http://www.w3.org/2000/svg">
<path d="M25.3125 24.375H4.6875C3.94158 24.375 3.22621 24.0787 2.69876 23.5512C2.17132 23.0238 1.875 22.3084 1.875 21.5625V8.4375C1.875 7.69158 2.17132 6.97621 2.69876 6.44876C3.22621 5.92132 3.94158 5.625 4.6875 5.625H25.3125C26.0584 5.625 26.7738 5.92132 27.3012 6.44876C27.8287 6.97621 28.125 7.69158 28.125 8.4375V21.5625C28.125 22.3084 27.8287 23.0238 27.3012 23.5512C26.7738 24.0787 26.0584 24.375 25.3125 24.375ZM4.6875 7.5C4.43886 7.5 4.2004 7.59877 4.02459 7.77459C3.84877 7.9504 3.75 8.18886 3.75 8.4375V21.5625C3.75 21.8111 3.84877 22.0496 4.02459 22.2254C4.2004 22.4012 4.43886 22.5 4.6875 22.5H25.3125C25.5611 22.5 25.7996 22.4012 25.9754 22.2254C26.1512 22.0496 26.25 21.8111 26.25 21.5625V8.4375C26.25 8.18886 26.1512 7.9504 25.9754 7.77459C25.7996 7.59877 25.5611 7.5 25.3125 7.5H4.6875Z" fill="white"/>
<path d="M14.9998 15.9373C14.816 15.9359 14.6367 15.8805 14.4842 15.778L3.23417 8.27795C3.05226 8.13142 2.9316 7.92226 2.89583 7.69142C2.86005 7.46059 2.91175 7.22471 3.04078 7.03C3.16981 6.83528 3.36688 6.69574 3.5934 6.63872C3.81992 6.58169 4.05958 6.61129 4.26542 6.7217L15.5154 14.2217C15.6817 14.3334 15.8078 14.4954 15.8753 14.684C15.9427 14.8726 15.948 15.0779 15.8904 15.2697C15.8327 15.4615 15.7152 15.6298 15.5549 15.75C15.3946 15.8701 15.2001 15.9358 14.9998 15.9373Z" fill="white"/>
<path d="M15.0001 15.9374C14.7991 15.9379 14.6031 15.8736 14.4413 15.7542C14.2795 15.6348 14.1604 15.4665 14.1016 15.2742C14.0427 15.082 14.0473 14.8758 14.1146 14.6863C14.1818 14.4968 14.3082 14.334 14.4751 14.2218L25.7251 6.72179C25.9314 6.59983 26.1766 6.56151 26.4103 6.61468C26.6439 6.66785 26.8484 6.80849 26.9816 7.0077C27.1148 7.20691 27.1666 7.44956 27.1265 7.68582C27.0864 7.92207 26.9573 8.13399 26.7658 8.27804L15.5158 15.778C15.3632 15.8806 15.1839 15.936 15.0001 15.9374Z" fill="white"/>
</svg>
