<svg width="30" height="28" viewBox="0 0 30 28" fill="none" xmlns="http://www.w3.org/2000/svg">
<path fill-rule="evenodd" clip-rule="evenodd" d="M9.50386 0.631757C9.79416 0.465872 10.1482 0.456046 10.4472 0.605573L19.9685 5.36623L28.2539 0.631757C28.5634 0.454898 28.9436 0.456168 29.2519 0.63509C29.5602 0.814012 29.75 1.14353 29.75 1.5V21.5C29.75 21.8589 29.5577 22.1902 29.2461 22.3682L20.4961 27.3682C20.2058 27.5341 19.8518 27.544 19.5528 27.3944L10.0315 22.6338L1.74614 27.3682C1.43664 27.5451 1.05639 27.5438 0.748073 27.3649C0.439758 27.186 0.25 26.8565 0.25 26.5V6.5C0.25 6.14114 0.442286 5.8098 0.753861 5.63176L9.50386 0.631757ZM11 20.882L19 24.882V7.11803L11 3.11803V20.882ZM9 3.22318V20.9197L2.25 24.7768V7.08032L9 3.22318ZM21 7.08032V24.7768L27.75 20.9197V3.22318L21 7.08032Z" fill="white"/>
</svg>
