<svg width="80" height="80" viewBox="0 0 80 80" fill="none" xmlns="http://www.w3.org/2000/svg">
<path d="M58.25 23.875C58.5 20.125 54.75 16.75 50.25 16.75C45.625 16.75 41.875 20.125 42.25 24C42.5 27.625 46 30.375 50.125 30.5C54.25 30.5 58 27.625 58.25 23.875Z" fill="#4F3D8E"/>
<path d="M74.625 40.25C74 37.5 71.375 35.5 68.375 35.5H67.5L69 20C69.125 19 69.25 18 69.25 17C69.375 16 69.5 14.875 69.5 13.875C69.75 11.625 69.875 9.75 70 8.125C70.375 4.25 68.25 1.875 64.25 1.75C60.25 1.625 56.25 1.625 52.25 1.625H47.875C43.75 1.625 39.625 1.625 35.5 1.75C32.25 1.875 30.375 3.625 30.125 6.875V8.75C31 17.375 31.5 23 32.125 29.375C29.75 29.75 28.125 31.25 26.625 33C23.125 37.375 15.125 35.5 10.125 35.5C7.125 35.5 5 37.625 5 40.625V67.625C5 70.125 6.5 72 8.625 72.5C9.125 72.625 9.625 72.75 10.125 72.75C15.25 72.75 20.375 72.25 25.375 73.25C30.75 74.25 35.625 77.125 41 77.75C46.75 78.5 52.625 77.625 58.375 77.625C59 77.625 59.625 77.5 60.125 77.375C61.5 77 62.5 76.25 63.375 75.125C64.375 73.75 64.875 72 64.5 70.125C64.375 69.25 63.875 68.5 63.625 67.625C65.125 67.5 66.375 67 67.375 66.25C69.125 64.875 70 62.625 69.625 60.375C69.5 59.375 69 58.25 68.25 57.25C69.375 56.75 70.375 56 71 55.125C72.625 53 72.75 49.875 70.75 47.25C70.875 47.25 71 47.125 71.125 47.125C74 46 75.375 43.25 74.625 40.25ZM40.875 13.5C42.75 12.125 43.875 10.125 44.25 7.5H56C56.625 11.875 59.25 14.5 63.625 15.25H63.75V15.375C63.125 23.875 62.875 29.125 62.375 35.625H60.5L53.875 35.5L44.625 35.375C43 35.25 41.5 35 40.25 34.5C40 34.375 39.75 34.375 39.5 34.25C39.375 34.25 39.25 34.125 39.125 34C38.625 33.75 38.125 33.5 37.75 33.25C37.75 32.5 37.625 31.875 37.625 31.125L36.5 15.25C38.25 15 39.75 14.375 40.875 13.5Z" fill="#4F3D8E"/>
</svg>
