<svg width="30" height="30" viewBox="0 0 30 30" fill="none" xmlns="http://www.w3.org/2000/svg">
<path d="M21.3786 27.9527C20.3139 27.9531 19.2676 27.6753 18.3434 27.1469L18.2131 27.0734C12.2039 23.636 7.17659 18.7152 3.61133 12.781L2.93168 11.6483C2.23557 10.4902 1.94711 9.13243 2.11228 7.79138C2.27745 6.45033 2.88674 5.20315 3.84306 4.2486L5.19719 2.89446C6.33512 1.75653 8.18581 1.75653 9.32271 2.89446L12.3062 5.87791C12.7552 6.32903 13.0449 6.91419 13.1315 7.54475C13.2181 8.17531 13.0969 8.81692 12.7862 9.3724L11.6648 11.3638C11.6412 11.4057 11.632 11.4541 11.6385 11.5018C11.6451 11.5494 11.667 11.5936 11.701 11.6276L18.3434 18.27C18.3779 18.3038 18.4225 18.3255 18.4705 18.3319C18.5184 18.3382 18.5671 18.3288 18.6093 18.3052L20.5975 17.1848L20.5986 17.1838C21.1541 16.8734 21.7957 16.7523 22.4261 16.8389C23.0566 16.9255 23.6418 17.2151 24.0931 17.6638L27.0775 20.6493C28.2155 21.7872 28.2155 23.6379 27.0775 24.7748L25.6634 26.1879C25.1002 26.7492 24.4319 27.194 23.6967 27.4969C22.9614 27.7997 22.1737 27.9546 21.3786 27.9527ZM7.25995 4.10998C7.04271 4.10998 6.82547 4.19274 6.65995 4.35826L5.30581 5.71136C4.6764 6.33964 4.27538 7.1605 4.16664 8.04315C4.05791 8.9258 4.24771 9.81945 4.70581 10.5817L5.38547 11.7145C8.76734 17.3438 13.5361 22.0121 19.2362 25.2734L19.3665 25.3469C20.9451 26.25 22.9313 25.9945 24.1996 24.7241L25.6137 23.311C25.6926 23.2322 25.7551 23.1387 25.7978 23.0358C25.8404 22.9328 25.8624 22.8225 25.8624 22.711C25.8624 22.5996 25.8404 22.4892 25.7978 22.3863C25.7551 22.2833 25.6926 22.1898 25.6137 22.111L22.6293 19.1255C22.4979 18.9949 22.3276 18.9108 22.144 18.8857C21.9605 18.8607 21.7739 18.8962 21.6124 18.9869L19.6241 20.1072C19.1881 20.3513 18.6845 20.4467 18.1895 20.3789C17.6945 20.3112 17.235 20.084 16.8806 19.7317L10.2382 13.0893C9.88561 12.7354 9.65814 12.2761 9.59036 11.7811C9.52258 11.2861 9.61821 10.7825 9.86271 10.3469L10.9841 8.35653C11.0742 8.19498 11.1093 8.00851 11.0841 7.82525C11.0589 7.642 10.9748 7.47192 10.8444 7.34067L7.85995 4.35826C7.78121 4.27941 7.68768 4.21688 7.58471 4.17428C7.48175 4.13167 7.37138 4.10982 7.25995 4.10998Z" fill="white"/>
</svg>
