<svg width="80" height="80" viewBox="0 0 80 80" fill="none" xmlns="http://www.w3.org/2000/svg">
<path d="M75.0302 37.5757L63.3938 25.9394C63.1514 25.697 62.909 25.5757 62.5453 25.5757H51.0302C50.4241 25.5757 49.8181 26.1818 49.8181 26.7879V52.2424H5.81808C5.21202 52.2424 4.60596 52.8485 4.60596 53.4545V64.2424C4.60596 64.9697 5.21202 65.4545 5.81808 65.4545H12.4847C12.4847 65.0909 12.3635 64.606 12.3635 64.2424C12.3635 59.0303 16.606 54.7879 21.8181 54.7879C27.0302 54.7879 31.2726 59.0303 31.2726 64.2424C31.2726 64.606 31.2726 65.0909 31.1514 65.4545H49.0908C49.0908 65.0909 48.9696 64.606 48.9696 64.2424C48.9696 59.0303 53.212 54.7879 58.4241 54.7879C63.6363 54.7879 67.8787 59.0303 67.8787 64.2424C67.8787 64.606 67.8787 65.0909 67.7575 65.4545H74.4241C75.1514 65.4545 75.6363 64.9697 75.6363 64.2424V38.5454C75.3938 38.1818 75.2726 37.8182 75.0302 37.5757ZM69.6969 45.2121H55.6363V31.3939H59.3938L69.8181 41.8182V45.2121H69.6969Z" fill="#4F3D8E"/>
<path d="M58.303 57.2122C54.4242 57.2122 51.2727 60.3637 51.2727 64.2425C51.2727 68.1212 54.4242 71.2728 58.303 71.2728C62.1818 71.2728 65.3333 68.1212 65.3333 64.2425C65.2121 60.3637 62.1818 57.2122 58.303 57.2122ZM21.6969 57.2122C17.8181 57.2122 14.6666 60.3637 14.6666 64.2425C14.6666 68.1212 17.8181 71.2728 21.6969 71.2728C25.5757 71.2728 28.7272 68.1212 28.7272 64.2425C28.7272 60.3637 25.5757 57.2122 21.6969 57.2122ZM10.7878 39.5152C13.0909 39.5152 15.0303 37.5758 15.0303 35.2728C15.0303 33.3334 13.6969 31.7576 12 31.1515V18.5455L26.909 46.3031H25.2121C22.7878 46.3031 20.8484 47.7576 19.8787 49.697H47.5151V47.8788C46.4242 46.9091 45.0909 46.3031 43.5151 46.3031H41.5757L16.1212 10.4243C15.3939 9.45457 14.303 8.84851 13.0909 8.84851C11.7575 8.84851 10.5454 9.57578 9.81814 10.6667C9.21208 11.6364 9.09086 12.9697 9.57571 14.0606V32.2425C9.57571 32.9697 10.0606 33.4546 10.7878 33.4546C11.7575 33.4546 12.606 34.3031 12.606 35.2728C12.606 36.2425 11.7575 37.0909 10.7878 37.0909C9.81814 37.0909 8.96965 36.2425 8.96965 35.2728C8.96965 34.5455 8.4848 34.0606 7.75753 34.0606C7.03026 34.0606 6.54541 34.5455 6.54541 35.2728C6.54541 37.5758 8.4848 39.5152 10.7878 39.5152ZM13.0909 11.0303C13.8181 11.0303 14.4242 11.6364 14.4242 12.3637C14.4242 13.0909 13.8181 13.697 13.0909 13.697C12.3636 13.697 11.7575 13.0909 11.7575 12.3637C11.7575 11.6364 12.2424 11.0303 13.0909 11.0303Z" fill="#4F3D8E"/>
</svg>
