<svg width="75" height="48" viewBox="0 0 75 48" fill="none" xmlns="http://www.w3.org/2000/svg">
<path d="M0 0.5V28H47.5V4.455C47.4775 4.31926 47.4775 4.18074 47.5 4.045V0.5H0ZM4.985 3C5.15168 2.99799 5.31708 3.02933 5.47147 3.09219C5.62585 3.15505 5.76611 3.24816 5.88397 3.36602C6.00184 3.48389 6.09495 3.62415 6.15781 3.77853C6.22067 3.93292 6.25201 4.09832 6.25 4.265V24.25C6.275 25.94 3.725 25.94 3.75 24.25V4.265C3.74802 4.10084 3.77839 3.93791 3.83939 3.78549C3.90038 3.63307 3.9908 3.49417 4.10548 3.3767C4.22017 3.25923 4.35686 3.1655 4.50777 3.10087C4.65868 3.03623 4.82084 3.00196 4.985 3ZM12.485 3C12.6517 2.99799 12.8171 3.02933 12.9715 3.09219C13.1259 3.15505 13.2661 3.24816 13.384 3.36602C13.5018 3.48389 13.5949 3.62415 13.6578 3.77853C13.7207 3.93292 13.752 4.09832 13.75 4.265V24.25C13.775 25.94 11.225 25.94 11.25 24.25V4.265C11.248 4.10084 11.2784 3.93791 11.3394 3.78549C11.4004 3.63307 11.4908 3.49417 11.6055 3.3767C11.7202 3.25923 11.8569 3.1655 12.0078 3.10087C12.1587 3.03623 12.3208 3.00196 12.485 3ZM19.985 3C20.1517 2.99799 20.3171 3.02933 20.4715 3.09219C20.6259 3.15505 20.7661 3.24816 20.884 3.36602C21.0018 3.48389 21.0949 3.62415 21.1578 3.77853C21.2207 3.93292 21.252 4.09832 21.25 4.265V24.25C21.275 25.94 18.725 25.94 18.75 24.25V4.265C18.748 4.10084 18.7784 3.93791 18.8394 3.78549C18.9004 3.63307 18.9908 3.49417 19.1055 3.3767C19.2202 3.25923 19.3569 3.1655 19.5078 3.10087C19.6587 3.03623 19.8208 3.00196 19.985 3ZM27.485 3C27.6517 2.99799 27.8171 3.02933 27.9715 3.09219C28.1259 3.15505 28.2661 3.24816 28.384 3.36602C28.5018 3.48389 28.5949 3.62415 28.6578 3.77853C28.7207 3.93292 28.752 4.09832 28.75 4.265V24.25C28.775 25.94 26.225 25.94 26.25 24.25V4.265C26.248 4.10084 26.2784 3.93791 26.3394 3.78549C26.4004 3.63307 26.4908 3.49417 26.6055 3.3767C26.7202 3.25923 26.8569 3.1655 27.0078 3.10087C27.1587 3.03623 27.3208 3.00196 27.485 3ZM34.985 3C35.1517 2.99799 35.3171 3.02933 35.4715 3.09219C35.6259 3.15505 35.7661 3.24816 35.884 3.36602C36.0018 3.48389 36.0949 3.62415 36.1578 3.77853C36.2207 3.93292 36.252 4.09832 36.25 4.265V24.25C36.275 25.94 33.725 25.94 33.75 24.25V4.265C33.748 4.10084 33.7784 3.93791 33.8394 3.78549C33.9004 3.63307 33.9908 3.49417 34.1055 3.3767C34.2202 3.25923 34.3569 3.1655 34.5078 3.10087C34.6587 3.03623 34.8208 3.00196 34.985 3ZM42.485 3C42.6517 2.99799 42.8171 3.02933 42.9715 3.09219C43.1259 3.15505 43.2661 3.24816 43.384 3.36602C43.5018 3.48389 43.5949 3.62415 43.6578 3.77853C43.7207 3.93292 43.752 4.09832 43.75 4.265V24.25C43.775 25.94 41.225 25.94 41.25 24.25V4.265C41.248 4.10084 41.2784 3.93791 41.3394 3.78549C41.4004 3.63307 41.4908 3.49417 41.6055 3.3767C41.7202 3.25923 41.8569 3.1655 42.0078 3.10087C42.1587 3.03623 42.3208 3.00196 42.485 3ZM50 5.5V18H73.4475L62.5 5.5H50ZM50 20.5V38H52.13C53.54 35.055 56.5275 33 60 33C63.4725 33 66.46 35.055 67.87 38H75V33H71.25C70.9185 33 70.6005 32.8683 70.3661 32.6339C70.1317 32.3995 70 32.0815 70 31.75V26.75C70 26.4185 70.1317 26.1005 70.3661 25.8661C70.6005 25.6317 70.9185 25.5 71.25 25.5H75V20.5H50ZM53.6075 24.25C53.65 24.2478 53.6925 24.2478 53.735 24.25H56.27C57.96 24.225 57.96 26.775 56.27 26.75H53.735C52.0675 26.835 51.9425 24.335 53.61 24.25H53.6075ZM72.5 28V30.5H75V28H72.5ZM0 30.5V33H3.735C5.425 32.975 5.425 35.525 3.735 35.5H0V38H10.88C12.29 35.055 15.2775 33 18.75 33C22.2225 33 25.21 35.055 26.62 38H47.5V30.5H0ZM18.75 35.5C17.9285 35.4974 17.1146 35.6572 16.3551 35.9704C15.5956 36.2835 14.9056 36.7438 14.3247 37.3247C13.7438 37.9056 13.2835 38.5956 12.9704 39.3551C12.6572 40.1146 12.4974 40.9285 12.5 41.75C12.5 45.2175 15.2825 48 18.75 48C22.2175 48 25 45.2175 25 41.75C25 38.2825 22.2175 35.5 18.75 35.5ZM60 35.5C59.1785 35.4974 58.3646 35.6572 57.6051 35.9704C56.8456 36.2835 56.1556 36.7438 55.5747 37.3247C54.9938 37.9056 54.5335 38.5956 54.2204 39.3551C53.9072 40.1146 53.7474 40.9285 53.75 41.75C53.75 45.2175 56.5325 48 60 48C63.4675 48 66.25 45.2175 66.25 41.75C66.25 38.2825 63.4675 35.5 60 35.5ZM18.75 38C20.8075 38 22.5 39.695 22.5 41.75C22.5 43.8075 20.8075 45.5 18.75 45.5C16.695 45.5 15 43.8075 15 41.75C15 39.695 16.695 38 18.75 38ZM60 38C62.0575 38 63.75 39.695 63.75 41.75C63.75 43.8075 62.0575 45.5 60 45.5C57.9425 45.5 56.25 43.8075 56.25 41.75C56.25 39.695 57.9425 38 60 38ZM18.75 40.5C18.045 40.5 17.5 41.045 17.5 41.75C17.5 42.455 18.045 43 18.75 43C19.455 43 20 42.455 20 41.75C20 41.045 19.455 40.5 18.75 40.5ZM60 40.5C59.295 40.5 58.75 41.045 58.75 41.75C58.75 42.455 59.295 43 60 43C60.705 43 61.25 42.455 61.25 41.75C61.25 41.045 60.705 40.5 60 40.5Z" fill="#D8107D"/>
</svg>
