<svg width="78" height="44" viewBox="0 0 78 44" fill="none" xmlns="http://www.w3.org/2000/svg">
<path d="M76.4116 26.5882C76.1763 25.0588 74.9998 23.7647 73.4704 23.4118L64.2939 21.5294L58.7645 7.88235C58.1763 6.47059 56.8821 5.64706 55.3527 5.64706H43.2351C42.6469 5.64706 42.0586 6.11765 42.0586 6.82353V27.2941H1.35274C0.646858 27.2941 0.17627 27.8824 0.17627 28.4706V37.5294C0.17627 38.2353 0.646858 38.7059 1.35274 38.7059H3.11745C3.11745 38.5882 3.11745 38.4706 3.11745 38.3529C3.11745 34.1176 6.52921 30.7059 10.7645 30.7059C14.9998 30.7059 18.4116 34.1176 18.4116 38.3529C18.4116 38.4706 18.4116 38.5882 18.4116 38.7059H54.2939C54.2939 38.5882 54.2939 38.4706 54.2939 38.3529C54.2939 34.1176 57.7057 30.7059 61.941 30.7059C66.1763 30.7059 69.588 34.1176 69.588 38.3529C69.588 38.4706 69.588 38.5882 69.588 38.7059H76.6469C77.3527 38.7059 77.941 38.1176 77.8233 37.4118L76.4116 26.5882ZM46.5292 21.8824V8H55.3527C55.941 8 56.4116 8.35294 56.5292 8.82353L61.941 22H46.5292V21.8824Z" fill="#D8107D"/>
<path fill-rule="evenodd" clip-rule="evenodd" d="M61.8234 40.1176C62.798 40.1176 63.5881 39.3276 63.5881 38.3529C63.5881 37.3783 62.798 36.5882 61.8234 36.5882C60.8488 36.5882 60.0587 37.3783 60.0587 38.3529C60.0587 39.3276 60.8488 40.1176 61.8234 40.1176ZM67.1175 38.3529C67.1175 41.2768 64.7473 43.6471 61.8234 43.6471C58.8996 43.6471 56.5293 41.2768 56.5293 38.3529C56.5293 35.4291 58.8996 33.0588 61.8234 33.0588C64.7473 33.0588 67.1175 35.4291 67.1175 38.3529Z" fill="#D8107D"/>
<path fill-rule="evenodd" clip-rule="evenodd" d="M35.3527 8.11765V7.88235H3.70568V8.23529H34.1763V8.11765H35.3527ZM6.64686 4.35294V1.64706C6.64686 0.941178 7.23509 0.470589 7.82333 0.470589C8.41156 0.470589 8.9998 0.941178 8.9998 1.64706V4.35294H30.0586V1.64706C30.0586 0.941178 30.6469 0.470589 31.2351 0.470589C31.941 0.470589 32.4116 0.941178 32.4116 1.64706V4.35294H37.7057C38.4116 4.35294 38.8822 4.94118 38.8822 5.52941V10.4706C38.8822 10.9158 38.6126 11.361 38.1755 11.5512C38.035 11.6123 37.8773 11.6471 37.7057 11.6471V11.7647H32.4116V15.0588H37.7057C37.8773 15.0588 38.035 15.0936 38.1755 15.1547C38.2612 15.192 38.3405 15.2391 38.4126 15.2941C38.708 15.5195 38.8822 15.8774 38.8822 16.2353V21.2941C38.8822 21.8824 38.4116 22.4706 37.7057 22.4706H32.4116V24.9412H30.0586V22.4706H8.9998V24.9412H6.64686V22.4706H1.35274C0.646858 22.4706 0.17627 21.8824 0.17627 21.2941V16.2353C0.17627 15.8544 0.373612 15.4735 0.704393 15.2523C0.884418 15.1319 1.10396 15.0588 1.35274 15.0588H6.64686V11.7647H1.35274C1.10396 11.7647 0.884418 11.6916 0.704393 11.5713C0.373612 11.3501 0.17627 10.9692 0.17627 10.5882V5.52941C0.17627 4.94118 0.646858 4.35294 1.35274 4.35294H6.64686ZM35.3527 18.9412V18.5882H3.70568V18.9412H35.3527ZM30.0586 15.0588V11.7647H8.9998V15.0588H30.0586ZM10.7645 40.1176C11.7564 40.1176 12.5292 39.3449 12.5292 38.3529C12.5292 37.361 11.7564 36.5882 10.7645 36.5882C9.77257 36.5882 8.9998 37.361 8.9998 38.3529C8.9998 39.3449 9.77257 40.1176 10.7645 40.1176ZM10.7645 43.6471C13.7057 43.6471 16.0586 41.2941 16.0586 38.3529C16.0586 35.4118 13.7057 33.0588 10.7645 33.0588C7.82333 33.0588 5.47039 35.4118 5.47039 38.3529C5.47039 41.2941 7.82333 43.6471 10.7645 43.6471Z" fill="#D8107D"/>
<path d="M35.3527 7.88235V8.11765H34.1763V8.23529H3.70568V7.88235H35.3527Z" fill="#D8107D"/>
<path d="M35.3527 18.5882V18.9412H3.70568V18.5882H35.3527Z" fill="#D8107D"/>
</svg>
