<svg viewBox="0 0 281 86" fill="none" xmlns="http://www.w3.org/2000/svg">
<path fill-rule="evenodd" clip-rule="evenodd" d="M11.5505 1H269.449C275.252 1 280 5.74769 280 11.5505V74.5425C280 80.3453 275.252 85.093 269.449 85.093H11.5505C5.74771 85.093 1 80.3453 1 74.5425V11.5505C1 5.74769 5.74771 1 11.5505 1Z" fill="#393185" stroke="#2B2A29" stroke-width="0.666709" stroke-miterlimit="22.9256"/>
<path fill-rule="evenodd" clip-rule="evenodd" d="M10.1423 5.1333H270.858C273.686 5.1333 275.999 7.4471 275.999 10.2751V75.8179C275.999 78.6459 273.686 80.9597 270.858 80.9597H10.1423C7.31428 80.9597 5.00049 78.6459 5.00049 75.8179V10.2751C5.00049 7.4471 7.31428 5.1333 10.1423 5.1333Z" fill="#FEFEFE" stroke="#9D9E9E" stroke-width="0.666709" stroke-miterlimit="22.9256"/>
<path fill-rule="evenodd" clip-rule="evenodd" d="M33.159 36.9673L49.252 37.0249C49.2214 35.3956 49.6415 33.6883 51.0455 32.7112C51.772 32.2229 52.5254 31.7227 53.2418 31.5981C55.917 31.1327 56.8466 31.8319 58.7529 33.3831C59.1715 33.8394 59.336 34.3471 59.6066 34.8926C59.9066 35.4977 59.8431 36.2455 59.879 36.9835L60.8233 37.0319L60.8255 31.5739L57.8966 31.5494L57.8108 30.6596L59.9257 29.6234C60.5142 29.3162 61.0161 29.1397 61.7113 29.1431L62.3053 30.8392C62.3154 30.8595 62.3352 30.8845 62.3457 30.905C62.3565 30.9262 62.3745 30.9528 62.3853 30.9748C62.3966 30.9981 62.4114 31.027 62.4224 31.0514C62.6533 31.562 62.6687 31.4101 62.7924 31.9256C62.9531 32.5948 63.3276 33.1391 63.4766 33.8383C63.6042 34.4369 63.5431 34.0984 63.6599 34.325L63.8652 34.8129C63.876 34.8372 63.8905 34.8663 63.9017 34.8895C64.1382 35.3814 64.0079 35.4647 64.2746 35.975L64.4 36.1799C64.5205 36.4246 64.4609 36.4529 64.572 36.6488C65.7874 36.6679 65.2833 36.426 66.211 36.3516C66.5087 36.3277 66.909 36.3671 67.1922 36.2903C67.4755 36.2135 67.4293 36.0584 67.9717 36.0208C68.2906 35.9986 68.6397 36.045 68.9403 35.9395C69.2273 35.8388 69.2511 35.7198 69.7318 35.6917C70.6862 35.6359 70.7347 35.8287 71.3166 35.3322C71.3368 35.315 71.3714 35.2846 71.3882 35.2701C71.4056 35.2551 71.4384 35.2281 71.4633 35.2068L71.3441 33.6545L66.1441 33.6018C66.1214 32.751 65.9126 32.6233 65.7503 31.9292C65.6028 31.298 65.2678 31.0151 65.1552 30.528C65.0033 29.8709 64.9546 30.1241 64.8022 29.4044L64.5606 28.7493C64.5504 28.7261 64.5349 28.6987 64.5258 28.6737L64.4123 28.0824C64.3487 27.8612 64.3552 27.9488 64.3123 27.8615L64.0704 27.3C64.0596 27.2753 64.0451 27.2462 64.0339 27.2226L63.9554 27.0865C63.6173 26.3895 63.8612 26.5265 63.6208 26.0734L63.4383 25.1067C63.2138 25.1016 63.1592 25.074 62.9542 25.1449L62.6234 25.3429C62.0371 25.5945 62.0322 25.4605 61.2562 25.8753L60.9879 26.038C60.4044 26.2764 60.546 26.1176 59.6902 26.5313L59.5509 26.6092C58.338 27.2642 58.3041 27.0759 57.9068 27.292L57.3818 27.551C57.3598 27.5622 57.3326 27.5784 57.3112 27.5901C57.0731 27.72 56.643 28.1617 56.2698 27.3061L55.9179 26.5343C55.8529 26.3337 55.8415 26.0414 55.832 25.8314L48.8378 25.7611L46.5144 24.0851C46.4968 24.0692 46.4743 24.0447 46.4566 24.0288L45.983 23.7146C45.7406 23.5925 45.8128 23.6501 45.6414 23.5102L45.5263 23.4021C45.509 23.3863 45.4866 23.3617 45.4692 23.3459C45.4516 23.3301 45.4288 23.3061 45.4108 23.2906L43.2431 21.7702C43.2021 21.7329 43.1248 21.6556 43.0673 21.606C42.6773 21.2699 42.0871 21.1042 41.6869 20.7812C41.6694 20.7671 41.6462 20.7436 41.629 20.7287L41.4525 20.5634C41.4345 20.5469 41.4098 20.5253 41.3918 20.5088L40.1017 19.5576C39.8998 19.38 40.0226 19.4617 39.7763 19.3335L38.4138 18.4956L38.3787 17.256L35.7445 17.2446L35.744 32.2506L34.7599 32.2439L34.756 18.1546C34.7138 17.9802 34.6293 18.0072 34.5008 17.8644L33.748 17.3843C33.4903 17.2458 34.083 17.3779 33.4354 17.2603C32.6313 17.1143 23.4779 17.2557 23.4213 17.2685C23.2143 17.3151 23.0893 17.5237 22.9488 17.6641L22.7804 17.8363C22.7642 17.853 22.7412 17.8769 22.725 17.8936L22.4546 18.1785C22.4326 18.2022 22.3693 18.2706 22.3473 18.2947L21.9216 18.7704C21.6395 19.0815 21.6195 19.2966 21.3458 19.6432L20.7574 20.291C20.6177 20.469 20.703 20.3349 20.5841 20.5711L20.1423 21.2431C19.6774 21.786 19.6917 21.9796 19.3821 22.392L17.9255 24.9755C17.7726 25.8297 17.9196 32.2133 17.9194 33.9563C17.919 37.0019 18.1638 35.4382 18.2799 36.6519C18.523 36.6739 18.4904 36.6365 18.7449 36.753L18.8761 36.8371C19.1508 36.9968 19.1654 37.0319 20.2303 37.0277C20.9977 37.0247 21.7618 37.0224 22.5289 37.0127C22.5309 36.6718 22.5117 35.9731 22.5702 35.6661C23.0807 29.7923 33.0753 29.7286 33.159 36.9673ZM68.0356 25.7713L67.7967 25.8849C67.7757 26.5113 67.8377 27.2775 67.6852 27.8914C67.6054 28.2124 67.6685 27.9394 67.5961 28.0932C67.4896 28.3194 67.5709 27.7597 67.4416 28.49C67.2959 29.3126 67.1973 30.4527 68.0045 30.8761C68.8 31.2933 68.5176 31.2118 69.7434 31.2706L71.2837 31.5897C71.8923 30.7256 71.4703 31.2206 71.8098 30.396L72.6718 29.3675C72.6874 29.351 72.7102 29.3268 72.7259 29.3103L73.9871 28.3453C74.0073 28.3337 74.0323 28.3141 74.0529 28.3025C75.1414 27.6913 75.7722 27.8053 77.1161 27.818C77.5605 27.8222 77.9565 27.8149 78.3374 28.0261C78.3579 28.0374 78.3841 28.0562 78.4053 28.0673L80.0002 29.0438C80.0168 29.0606 80.0399 29.0842 80.0565 29.1009C80.0796 29.1242 80.1452 29.1909 80.168 29.214L80.9223 30.035C80.9436 30.0599 81.0071 30.1291 81.027 30.1542L81.5601 31.1586C81.8081 31.9637 81.3422 32.7475 81.9183 33.4183L83.607 33.6619C83.9061 34.0818 83.4102 33.23 83.6548 33.7726C83.7137 33.9034 83.6294 33.7843 83.717 33.9018C84.5768 33.9436 85.2484 33.8638 85.9971 34.1934C86.3198 34.3354 86.6825 34.2813 87.0289 34.3087C87.9016 34.3777 87.4911 34.5906 88.4432 34.6305C88.7289 34.6425 89.0594 34.6455 89.3397 34.6688L89.9543 34.8787C90.2413 35.0055 90.5654 34.9731 90.8777 34.9888C90.9923 34.9946 91.1819 35.0044 91.2891 35.0329C91.7327 35.1503 91.4083 35.2744 92.2918 35.312C93.7357 35.3736 93.2539 35.5162 93.8411 35.6241C94.1279 35.6768 94.5515 35.6279 94.8359 35.6787C95.4693 35.7917 94.9568 35.9289 96.3704 35.9971L96.9176 34.7444C96.9291 34.7223 96.9472 34.6959 96.959 34.6742C96.9706 34.6529 96.9897 34.627 97.0014 34.6058L97.5688 33.7219C97.585 33.7046 97.6075 33.6803 97.6237 33.663C97.64 33.6458 97.6624 33.6216 97.6787 33.6044L99.1652 32.4082C99.1847 32.3955 99.2115 32.3783 99.2321 32.3667C99.4614 32.2377 99.2243 32.3715 99.4695 32.2674L99.7142 32.1631C99.7358 32.1521 99.7624 32.1338 99.783 32.1226C100.113 31.9453 100.936 31.9084 101.422 31.9127C101.491 30.4892 101.785 31.1853 101.697 29.9351L100.434 29.8491C99.6256 29.6987 100.469 29.7088 99.7705 29.5815C99.6943 29.5676 99.4402 29.5581 99.3503 29.5543C97.639 29.4825 98.6921 29.3022 96.8008 29.1927C96.3066 29.1642 96.1959 29.0445 96.0337 28.9701C95.7931 28.8597 95.5144 28.8804 95.1761 28.8748C95.1066 30.1906 95.4937 29.7479 95.4593 31.1934L94.8466 31.1669C94.9395 30.9596 94.8393 31.1732 94.9683 31.031C95.1524 30.8281 95.134 31.1175 95.05 30.9392L93.7314 30.8609C93.0899 30.7142 93.7455 30.8695 93.3685 30.6978C92.9201 30.4934 92.098 30.5508 91.5291 30.5176C91.4199 30.3867 91.4683 30.4299 91.4467 30.3788C91.2832 29.9913 91.532 30.4907 91.419 30.278L89.4087 30.1658C89.1552 29.6806 89.4618 30.128 89.3285 29.9311C86.8243 29.7793 87.891 29.6333 87.0287 29.5652C86.6482 29.5353 86.073 29.5842 85.729 29.4613C85.7042 29.4524 85.6772 29.4366 85.6546 29.4266C85.6338 29.4173 85.6087 29.3976 85.5892 29.3878C85.5707 29.3785 85.5467 29.3573 85.5287 29.3481C85.3564 29.2601 85.6591 29.3424 85.3298 29.2531C85.179 29.2122 84.778 29.2101 84.6064 29.205C84.6321 28.2083 84.8363 28.3288 84.9064 27.7131C84.9547 27.288 84.9073 26.3023 85.0228 25.957C85.1861 25.4692 85.1437 26.2653 85.2558 25.329C85.3054 24.9143 85.228 24.4041 85.3311 23.9899C85.4438 23.537 85.5708 23.6913 85.6039 22.9347L85.9401 20.5306C85.9958 19.7297 86.0262 20.1695 86.1435 19.8863C86.3357 19.4228 86.2367 18.6988 86.2931 18.1486C86.3567 17.528 86.3729 17.894 86.4998 17.5319C86.6236 17.1791 86.5495 16.9193 86.6089 16.563C86.6961 16.0393 86.9547 16.1799 86.8765 15.5557C86.8406 15.2693 86.6039 14.6894 86.2597 14.3854C86.0476 14.1979 86.2921 14.3215 85.9964 14.2193C85.7727 14.142 85.3774 14.1541 85.1383 14.1347C84.322 14.0686 84.8687 14.0781 84.5288 13.929C84.0596 13.7232 83.4017 13.9012 82.8722 13.7609C82.2128 13.5861 83.1383 13.6621 82.2936 13.5073C81.6521 13.3898 81.4911 13.5321 80.8799 13.2637C80.3488 13.0305 79.6938 13.2536 79.1532 13.0637C78.6447 12.8851 79.4303 12.9362 78.5543 12.8299C78.2909 12.7979 77.9182 12.8283 77.661 12.7752C76.9024 12.6185 77.4537 12.5565 77.4454 12.539L75.7951 12.4504C75.7803 12.4363 75.7706 12.3743 75.767 12.3912L74.9233 12.1691C74.4155 12.1459 73.9961 12.1035 73.4844 12.1333C73.4675 12.1536 73.4422 12.1597 73.4347 12.1951L71.3946 14.8583C71.3833 14.8821 71.3734 14.9144 71.362 14.9379L70.5436 16.2525C70.5313 16.274 70.5123 16.3003 70.5004 16.3222C70.4883 16.3446 70.4718 16.3727 70.4603 16.3956L69.279 18.5949C68.3233 20.423 69.0467 20.5897 68.637 21.5748C68.2977 22.3906 68.5558 22.077 68.3749 23.6152C68.3021 24.2346 68.1269 23.6314 68.0356 25.7713ZM105.379 33.9354C105.38 33.9328 105.382 33.9305 105.383 33.9286C105.411 33.892 105.473 33.9601 105.503 33.9083C105.921 34.1297 105.534 33.8923 105.816 34.2046C106.449 34.9054 106.197 34.9459 106.48 35.5666C106.607 35.8472 106.693 35.5062 106.721 36.682C106.732 37.1313 106.723 37.5765 106.745 38.0246L107.353 38.0431C107.367 37.7916 107.352 37.6211 107.426 37.394C107.678 36.6261 107.139 38.026 107.534 37.186L107.7 35.659C107.76 34.2781 108.125 34.6331 107.964 33.3537C107.614 33.3228 107.281 33.305 106.931 33.292C106.796 33.287 106.497 33.2818 106.377 33.2591C105.69 33.1298 106.228 33.2159 105.997 33.098L105.078 32.9769C104.862 33.0198 104.781 33.0773 104.757 33.1331C104.754 33.1398 104.752 33.1466 104.751 33.1532L105.379 33.9354ZM32.094 23.9524L32.1067 20.0872C32.0731 20.0708 32.044 20.0203 32.0369 20.0379L31.2333 19.3134C30.8732 19.239 24.0529 19.1972 23.69 19.35L22.697 20.3668C22.6833 20.3859 22.664 20.4127 22.6512 20.4327L22.0678 21.3031C21.944 21.4699 22.0081 21.3684 21.9032 21.5913L21.6767 22.0306C21.6627 22.0495 21.6404 22.0738 21.6256 22.0921L21.0812 23.0237C20.9969 23.1883 20.8916 23.043 20.9134 23.6064C20.9209 23.7993 20.9434 23.8464 20.9963 23.9554L21.4118 24.4447C21.6321 24.6689 21.5471 24.7479 22.4257 24.7493L29.3629 24.7482C30.8188 24.7483 31.1141 24.9621 31.6583 24.3952L32.094 23.9524ZM37.0655 32.2506L42.0162 32.2494L42.016 22.363L37.0731 22.3618L37.0655 32.2506ZM79.6873 18.0207C80.0686 17.8014 79.6966 18.1045 79.9178 17.9272C79.9763 16.811 80.2205 15.6145 79.7182 15.1195C79.3033 14.7105 79.0824 14.9033 78.4288 14.8276C77.6409 14.7364 78.32 14.7182 77.7576 14.5687L76.7756 14.5029C75.8469 14.4177 76.6368 14.3043 75.8025 14.2038C74.5658 14.0548 75.0991 14.3673 74.3268 13.9887C73.985 13.8212 73.914 13.8762 73.4844 13.9007C73.0449 14.8653 73.2926 14.3176 72.6356 15.1253C72.6148 15.1509 72.5541 15.2222 72.5356 15.2496L71.4479 17.4042C71.3999 17.5296 71.3971 17.5515 71.3776 17.6905C71.3263 18.0545 71.3421 18.5852 71.4994 18.849L71.9727 19.2469L73.4499 19.3636C73.988 19.507 73.2493 19.5567 74.2487 19.6342C75.5246 19.7331 74.733 19.7111 75.1992 19.8787C75.7073 20.0615 76.949 19.9066 77.5001 20.061C78.0696 20.2205 77.1255 20.2661 78.2056 20.3236C78.3154 20.3295 78.6437 20.3169 78.7473 20.2883L79.028 20.1312C79.325 19.8915 79.5607 19.6798 79.6276 19.2907C79.6769 19.0038 79.6733 18.3454 79.6873 18.0207ZM37.7248 31.5748L41.363 31.5667L41.3544 23.0487L37.7298 23.0398L37.7248 31.5748ZM43.3382 32.2484L48.2874 32.2509L48.2868 27.1278L43.3234 27.1357L43.3382 32.2484ZM43.9962 31.5649L47.6272 31.5693L47.6275 27.817L44.0058 27.8181L43.9962 31.5649ZM35.751 16.9059L38.3852 16.9042C38.2785 15.4092 38.3193 16.1689 38.1617 15.7902C38.029 15.4715 38.0538 14.9336 38.033 14.5303L36.0998 14.5226C36.0887 14.7217 36.0907 15.0367 36.0606 15.2044C35.9084 16.0552 35.8166 15.0948 35.751 16.9059ZM54.4378 31.7185C57.1568 31.7185 59.3611 33.9959 59.3611 36.8052C59.3611 39.6145 57.1568 41.8919 54.4378 41.8919C51.7188 41.8919 49.5146 39.6145 49.5146 36.8052C49.5146 33.9959 51.7188 31.7185 54.4378 31.7185ZM54.4378 34.3077C55.7728 34.3077 56.855 35.4259 56.855 36.8052C56.855 38.1845 55.7728 39.3027 54.4378 39.3027C53.1028 39.3027 52.0205 38.1845 52.0205 36.8052C52.0205 35.4259 53.1028 34.3077 54.4378 34.3077ZM27.7375 31.7185C30.4565 31.7185 32.6607 33.9959 32.6607 36.8052C32.6607 39.6145 30.4565 41.8919 27.7375 41.8919C25.0185 41.8919 22.8143 39.6145 22.8143 36.8052C22.8143 33.9959 25.0185 31.7185 27.7375 31.7185ZM27.7375 34.3077C29.0725 34.3077 30.1547 35.4259 30.1547 36.8052C30.1547 38.1845 29.0725 39.3027 27.7375 39.3027C26.4025 39.3027 25.3202 38.1845 25.3202 36.8052C25.3202 35.4259 26.4025 34.3077 27.7375 34.3077ZM76.5903 28.7628C79.3093 28.7628 81.5135 31.0402 81.5135 33.8495C81.5135 36.6587 79.3093 38.9362 76.5903 38.9362C73.8713 38.9362 71.667 36.6587 71.667 33.8495C71.667 31.0402 73.8713 28.7628 76.5903 28.7628ZM76.5903 31.3519C77.9253 31.3519 79.0075 32.4702 79.0075 33.8495C79.0075 35.2287 77.9253 36.347 76.5903 36.347C75.2553 36.347 74.173 35.2287 74.173 33.8495C74.173 32.4702 75.2553 31.3519 76.5903 31.3519ZM101.53 32.7038C104.249 32.7038 106.453 34.9812 106.453 37.7905C106.453 40.5997 104.249 42.8771 101.53 42.8771C98.8111 42.8771 96.6069 40.5997 96.6069 37.7905C96.6069 34.9812 98.8111 32.7038 101.53 32.7038ZM101.53 35.293C102.865 35.293 103.947 36.4112 103.947 37.7905C103.947 39.1698 102.865 40.2879 101.53 40.2879C100.195 40.2879 99.1129 39.1698 99.1129 37.7905C99.1129 36.4112 100.195 35.293 101.53 35.293Z" fill="#393185"/>
<path d="M134.788 19.6257C134.69 18.5976 134.548 17.8442 134.362 17.3629C134.177 16.8815 133.921 16.6309 133.594 16.6224C133.425 16.618 133.246 16.6127 133.088 16.6068C133.15 15.4779 133.234 14.344 133.339 13.2127C135.53 13.2259 137.71 13.2338 139.911 13.2444C139.822 14.4158 139.755 15.5873 139.687 16.7642C139.476 16.7578 139.285 16.7561 139.085 16.7532C138.767 16.7485 138.548 16.8093 138.436 16.9501C138.314 17.0803 138.234 17.3255 138.222 17.6699C138.213 17.9334 138.249 18.4112 138.223 18.6254C138.792 24.6782 140.198 29.7864 141.089 31.3559C141.267 29.2721 141.468 27.1695 141.755 25.0571C142.044 22.9283 142.398 20.7922 142.794 18.6534C142.829 18.4507 142.861 18.272 142.88 18.112C142.898 17.9652 142.92 17.8422 142.925 17.7385C142.945 17.3779 142.893 17.1298 142.783 16.9904C142.683 16.8591 142.479 16.7877 142.141 16.7844C141.95 16.7827 141.76 16.7799 141.591 16.7791C141.649 15.5997 141.706 14.4228 141.796 13.2461C143.489 13.2516 145.193 13.2572 146.897 13.2627C146.818 14.4475 146.769 15.6349 146.721 16.8226C146.584 16.8219 146.446 16.8233 146.308 16.8233C145.97 16.8235 145.713 16.9888 145.506 17.3266C145.304 17.6567 145.113 18.299 144.955 19.2537C144.4 22.4487 143.888 25.6313 143.57 28.7867C143.254 31.9254 143.154 35.0333 143.135 38.0789C141.86 37.9365 140.585 37.8023 139.324 37.6281C137.141 31.8141 135.136 24.732 134.788 19.6257ZM153.399 13.2648C153.33 14.4441 153.283 15.6238 153.246 16.8034C153.045 16.8024 152.833 16.8039 152.621 16.8058C152.24 16.809 152.006 16.9108 151.886 17.1065C151.769 17.2971 151.695 17.858 151.664 18.771C151.661 18.8321 151.659 18.8938 151.663 18.9525C151.597 21.6 151.546 24.2496 151.635 26.8932C151.723 29.5332 151.94 32.161 152.185 34.7806C152.429 34.7765 152.683 34.7757 152.928 34.7628C153.61 34.727 153.687 34.649 153.942 34.4714C154.208 34.2858 154.391 33.9958 154.517 33.5667C154.685 33.0523 154.769 32.3541 154.812 31.4728C154.855 30.5928 154.863 29.3856 154.829 27.8319C155.405 27.7974 155.981 27.7603 156.547 27.7255C156.633 29.4583 156.732 31.1849 156.884 32.9054C157.036 34.627 157.252 36.3398 157.48 38.0492C154.027 38.3208 150.985 38.4023 147.506 38.3588C147.318 37.1995 147.173 36.0323 147.018 34.8598C147.22 34.8607 147.399 34.8671 147.589 34.8705C147.98 34.8778 148.218 34.7598 148.296 34.5378C148.379 34.3041 148.374 33.708 148.292 32.7359C148.1 30.4558 147.96 28.1705 147.914 25.8742C147.869 23.5789 147.905 21.2788 147.975 18.9774C148.005 17.999 147.988 17.3938 147.887 17.1646C147.789 16.9418 147.557 16.8277 147.165 16.8274C146.964 16.8273 146.774 16.8229 146.605 16.8221C146.653 15.6344 146.712 14.447 146.781 13.2622C148.983 13.2648 151.196 13.2674 153.399 13.2648ZM163.671 25.9557C163.476 24.7644 163.276 23.5738 163.108 22.3763C162.941 21.1808 162.784 19.9832 162.654 18.7786C162.464 20.0002 162.295 21.2192 162.148 22.441C161.999 23.6708 161.85 24.9059 161.743 26.1412C162.385 26.0803 163.028 26.0193 163.671 25.9557ZM164.173 37.1315C164.023 36.0096 163.894 34.8852 163.766 33.7529C163.928 33.7296 164.09 33.7023 164.252 33.6779C164.672 33.6145 164.924 33.5248 165.004 33.412C165.09 33.2908 165.126 33.1011 165.096 32.8251C165.076 32.6361 165.07 32.4556 165.033 32.2964C164.993 32.1261 164.966 31.9703 164.922 31.81C164.715 30.9842 164.53 30.1506 164.356 29.3142C163.356 29.4375 162.367 29.5608 161.378 29.6815C161.314 30.4713 161.262 31.2584 161.209 32.043C161.187 32.4033 161.174 32.686 161.16 32.8889C161.156 33.0943 161.156 33.2803 161.177 33.4442C161.206 33.6573 161.292 33.8131 161.427 33.9178C161.574 34.0172 161.771 34.0589 162.018 34.022C162.202 33.9944 162.375 33.965 162.558 33.9367C162.684 35.0823 162.812 36.2148 162.971 37.3472C161.343 37.5929 159.716 37.8253 158.075 37.9962C157.918 36.8423 157.773 35.6805 157.649 34.5135C157.788 34.5034 157.917 34.49 158.045 34.4781C158.324 34.4522 158.539 34.2399 158.696 33.8218C158.851 33.4089 158.936 32.7454 159.011 31.8348C159.268 28.6871 159.622 25.5484 160.104 22.4391C160.584 19.3442 161.187 16.2812 161.796 13.2572C163.12 13.2557 164.444 13.2514 165.769 13.2471C166.076 16.1367 166.42 19.0275 166.84 21.8979C167.261 24.7674 167.823 27.6119 168.445 30.4336C168.714 31.5426 168.924 32.2027 169.095 32.4147C169.264 32.6232 169.506 32.6934 169.821 32.6291C170.005 32.5917 169.887 32.6265 170.083 32.5848C170.187 33.6528 170.312 34.7239 170.437 35.7868C168.255 36.3155 166.373 36.7124 164.173 37.1315ZM170.162 27.3564C170.692 27.2681 171.221 27.1773 171.74 27.089C172.101 28.7483 172.61 30.0027 173.301 30.8227C173.98 31.6293 174.715 31.9161 175.534 31.7064C176.015 31.5834 176.39 31.2722 176.651 30.7909C176.908 30.3167 177.021 29.7541 176.971 29.1083C176.892 28.1067 176.202 27.4043 174.888 26.9761C174.45 26.8353 174.115 26.7162 173.863 26.6107C173.087 26.2842 172.455 25.9928 172.032 25.7266C171.599 25.4576 171.282 25.189 171.091 24.9266C170.636 24.3105 170.287 23.6068 170.076 22.8157C169.866 22.0085 169.739 21.0883 169.755 20.0354C169.789 17.7896 170.258 15.9647 171.124 14.5862C171.995 13.2451 173.092 12.5804 174.436 12.5869C175.113 12.5902 175.744 12.7187 176.338 12.9671C176.902 13.21 177.472 13.5785 177.995 14.0695C178.119 13.7392 178.223 13.4086 178.337 13.0783C178.867 13.0755 179.396 13.0754 179.915 13.0726C179.866 14.1801 179.811 15.296 179.776 16.4163C179.74 17.5429 179.726 18.6689 179.716 19.8006C179.093 19.8724 178.471 19.9415 177.869 20.0105C177.712 18.5977 177.378 17.5655 176.902 16.8909C176.429 16.2212 175.773 15.8895 174.932 15.9259C174.443 15.947 174.036 16.173 173.694 16.6245C173.355 17.0719 173.203 17.6178 173.19 18.2504C173.17 19.211 173.766 19.8786 174.972 20.242C175.278 20.3344 175.503 20.4041 175.676 20.4591C177.359 20.9947 178.538 21.7384 179.23 22.681C179.92 23.6215 180.286 24.9692 180.389 26.7571C180.505 28.7578 180.248 30.464 179.534 31.9072C178.847 33.3826 177.821 34.3477 176.422 34.7829C175.786 34.9811 175.166 35.0144 174.544 34.902C173.922 34.7896 173.291 34.4982 172.635 34.0547C172.539 34.4999 172.453 34.9453 172.379 35.3827C171.886 35.5165 171.383 35.6527 170.891 35.7811C170.721 34.3817 170.579 32.9752 170.446 31.5751C170.314 30.1741 170.236 28.7581 170.162 27.3564ZM184.546 15.9375C183.938 15.9709 183.47 16.3381 183.132 17.0358C182.802 17.747 182.618 18.7644 182.603 20.0948C182.602 20.123 182.597 20.1456 182.594 20.1722C182.045 20.2416 181.518 20.3085 180.981 20.3753C181 19.1636 181.025 17.954 181.059 16.7536C181.092 15.5575 181.136 14.3651 181.194 13.1828C185.029 13.1667 188.874 13.1531 192.719 13.1424C192.689 14.0978 192.626 15.0583 192.594 16.0192C192.561 16.9931 192.528 17.9648 192.516 18.9443C191.978 19.0084 191.452 19.0726 190.915 19.134C190.907 19.1126 190.912 19.0886 190.912 19.0673C190.934 17.9381 190.802 17.0915 190.5 16.5214C190.2 15.9382 189.746 15.663 189.139 15.6955C188.968 15.7046 188.819 15.7126 188.669 15.7226C188.602 17.4227 188.542 19.1424 188.545 20.8709C188.547 22.6043 188.599 24.3588 188.695 26.1087C188.731 26.7671 188.82 27.1621 188.943 27.2975C189.063 27.4301 189.318 27.4376 189.702 27.3306C189.986 27.2514 190.293 27.1679 190.6 27.0814C190.643 27.8663 190.706 28.654 190.781 29.4339C188.433 30.2046 186.093 30.9914 183.775 31.7756C183.671 30.8835 183.588 29.9917 183.516 29.097C183.79 29.0211 184.075 28.9348 184.35 28.8555C184.711 28.7512 184.94 28.6155 185.047 28.4345C185.143 28.248 185.164 27.7868 185.122 27.0255C185.017 25.1545 184.945 23.2831 184.93 21.4273C184.916 19.5782 184.964 17.736 185.015 15.9132C184.855 15.9204 184.695 15.9293 184.546 15.9375ZM204.823 13.1368C204.796 13.8841 204.727 14.6318 204.7 15.3836C204.672 16.1396 204.644 16.8967 204.625 17.6601C204.037 17.708 203.46 17.7559 202.882 17.8091C202.786 17.2001 202.688 16.7321 202.576 16.3956C202.463 16.0583 202.329 15.7884 202.154 15.5903C201.947 15.3542 201.705 15.1903 201.42 15.0983C201.134 15.0061 200.641 14.9736 199.971 14.9951C199.854 14.9989 199.748 15.0021 199.652 15.007C199.184 15.0234 198.706 15.037 198.238 15.0562C198.204 15.686 198.159 16.3164 198.147 16.9482C198.134 17.5789 198.11 18.2158 198.107 18.8511C198.247 18.8357 198.397 18.8175 198.526 18.8025C199.03 18.7435 199.377 18.5668 199.589 18.2444C199.792 17.9362 199.91 17.402 199.94 16.6552C199.941 16.6169 199.928 16.5804 199.932 16.5404C200.392 16.5078 200.861 16.4808 201.32 16.451C201.274 17.4411 201.238 18.4402 201.223 19.4428C201.207 20.4471 201.223 21.4581 201.249 22.4697C200.783 22.553 200.339 22.6334 199.885 22.7167C199.852 21.7637 199.734 21.1625 199.553 20.9055C199.362 20.6456 199.034 20.5524 198.528 20.6282C198.377 20.6505 198.226 20.6721 198.085 20.6955C198.082 21.4268 198.082 22.167 198.116 22.8977C198.149 23.6326 198.181 24.3741 198.219 25.111C198.851 24.9618 199.484 24.8107 200.136 24.6664C200.876 24.5026 201.383 24.3336 201.658 24.1639C201.933 23.9918 202.13 23.7605 202.282 23.4677C202.44 23.1215 202.574 22.7136 202.651 22.255C202.749 21.7936 202.807 21.2255 202.825 20.5554C203.428 20.473 204.02 20.3904 204.633 20.3108C204.646 21.1703 204.643 22.0331 204.66 22.8919C204.678 23.7599 204.715 24.6245 204.747 25.5002C200.961 26.424 197.194 27.4575 193.436 28.5872C193.367 27.8422 193.319 27.0972 193.261 26.3522C193.436 26.3104 193.622 26.2639 193.818 26.2134C194.169 26.1226 194.405 25.9972 194.507 25.8537C194.609 25.7101 194.657 25.3467 194.626 24.784C194.624 24.7459 194.614 24.7118 194.619 24.6719C194.542 23.2889 194.519 21.9071 194.515 20.534C194.512 19.1687 194.564 17.8086 194.616 16.4561C194.638 15.8819 194.586 15.5374 194.489 15.4091C194.395 15.2855 194.151 15.2269 193.757 15.2428C193.566 15.2506 193.385 15.2596 193.214 15.2667C193.247 14.5543 193.28 13.847 193.313 13.1399C197.157 13.1345 200.99 13.1317 204.823 13.1368ZM212.655 13.1666C212.637 13.663 212.609 14.162 212.591 14.6611C212.379 14.6628 212.177 14.6648 211.965 14.6686C211.594 14.6752 211.358 14.7284 211.249 14.8093C211.126 14.9009 211.063 15.1396 211.035 15.5317C211.033 15.561 211.039 15.585 211.035 15.6145C210.971 16.7592 210.916 17.9164 210.892 19.0783C210.867 20.2465 210.884 21.4192 210.901 22.5938C211.138 22.5601 211.386 22.5193 211.624 22.4825C212.303 22.377 212.793 22.2746 213.07 22.1691C213.349 22.0584 213.557 21.9125 213.73 21.708C213.939 21.4634 214.099 21.1485 214.203 20.7653C214.308 20.3807 214.397 19.8668 214.434 19.2102C215.001 19.1622 215.579 19.1117 216.145 19.0691C216.133 19.7816 216.132 20.4946 216.119 21.2123C216.106 21.9303 216.104 22.6535 216.101 23.3795C212.68 23.9128 209.28 24.5291 205.902 25.2307C205.878 24.6461 205.853 24.064 205.839 23.4794C206.012 23.4482 206.196 23.4158 206.369 23.3861C206.769 23.3174 207.008 23.2212 207.114 23.0905C207.219 22.9608 207.275 22.66 207.265 22.1945C207.24 21.109 207.23 20.0304 207.243 18.9539C207.257 17.8821 207.312 16.8141 207.365 15.7541C207.388 15.304 207.35 15.0283 207.253 14.9289C207.152 14.8246 206.9 14.7837 206.507 14.7945C206.327 14.7995 206.136 14.8035 205.966 14.808C206.001 14.2529 206.026 13.6978 206.051 13.1427C208.252 13.148 210.454 13.1533 212.655 13.1666ZM223.933 13.2479C223.934 13.6749 223.915 14.0992 223.905 14.5289C223.714 14.5307 223.534 14.5301 223.354 14.5316C222.962 14.5351 222.714 14.58 222.596 14.6693C222.48 14.7575 222.418 14.9757 222.4 15.3275C222.357 16.1792 222.317 17.0299 222.293 17.8789C222.269 18.7378 222.239 19.5971 222.224 20.4598C222.218 20.8222 222.264 21.0417 222.388 21.1252C222.499 21.2003 222.735 21.2281 223.131 21.1928C223.302 21.1776 223.474 21.1623 223.666 21.1447C223.644 21.5929 223.623 22.0333 223.601 22.4789C221.423 22.706 219.254 22.9624 217.103 23.2377C217.118 22.7546 217.113 22.2715 217.129 21.7909C217.301 21.7705 217.473 21.7473 217.666 21.727C218.052 21.6861 218.304 21.6111 218.413 21.5089C218.53 21.3989 218.595 21.1537 218.597 20.7731C218.602 19.8698 218.635 18.9682 218.659 18.0695C218.683 17.1747 218.731 16.284 218.771 15.3955C218.787 15.0298 218.743 14.8069 218.631 14.7089C218.532 14.6217 218.276 14.579 217.884 14.5825C217.704 14.5841 217.513 14.586 217.344 14.5879C217.368 14.1236 217.382 13.6592 217.406 13.1922C219.575 13.208 221.765 13.2267 223.933 13.2479ZM229.961 13.3089C230.628 14.273 231.298 15.2349 231.933 16.1771C232.573 17.1253 233.242 18.0519 233.892 18.9813C233.904 18.3567 233.948 17.7322 233.96 17.1077C233.972 16.4858 233.992 15.8642 234.005 15.245C234.012 14.9115 233.96 14.7126 233.845 14.6383C233.744 14.5729 233.477 14.534 233.107 14.5305C232.906 14.5287 232.694 14.5285 232.493 14.5276C232.498 14.13 232.493 13.7348 232.488 13.3398C234.106 13.3608 235.713 13.382 237.331 13.4005C237.337 13.7876 237.343 14.1719 237.339 14.559C237.201 14.5583 237.074 14.5577 236.947 14.5571C236.566 14.5553 236.328 14.5839 236.204 14.6602C236.088 14.7319 236.055 14.9282 236.048 15.2495C236.026 16.3108 235.988 17.3742 235.948 18.4387C235.909 19.5145 235.837 20.5896 235.737 21.6781C234.472 21.72 233.194 21.7806 231.936 21.8493C231.294 20.8532 230.63 19.852 229.949 18.8395C229.266 17.825 228.598 16.7936 227.928 15.7601C227.895 16.4752 227.866 17.1954 227.837 17.9137C227.808 18.6391 227.785 19.3604 227.755 20.086C227.74 20.433 227.792 20.6451 227.901 20.7193C228.007 20.7928 228.259 20.8168 228.643 20.7924C228.803 20.7823 228.964 20.7725 229.134 20.7626C229.094 21.1815 229.076 21.5979 229.035 22.0194C227.41 22.1475 225.795 22.2786 224.18 22.4177C224.212 21.9747 224.223 21.5343 224.255 21.094C224.427 21.0763 224.608 21.0639 224.8 21.0513C225.174 21.0268 225.435 20.9655 225.553 20.8708C225.669 20.7773 225.746 20.5559 225.76 20.2045C225.793 19.3786 225.801 18.555 225.826 17.7331C225.851 16.9192 225.893 16.0994 225.931 15.2859C225.948 14.9441 225.891 14.7367 225.786 14.6527C225.679 14.5678 225.42 14.5247 225.028 14.5263C224.848 14.5271 224.668 14.5273 224.498 14.5291C224.507 14.1021 224.527 13.6751 224.526 13.248C226.345 13.27 228.142 13.2894 229.961 13.3089Z" fill="#E5097F"/>
<path d="M247.068 28.2672C247.002 28.3583 246.922 28.4427 246.829 28.5122C246.741 28.5855 246.644 28.647 246.54 28.6975C246.439 28.7479 246.334 28.7866 246.23 28.8145C246.126 28.842 246.032 28.8565 245.945 28.8615C245.52 28.8874 245.099 28.9109 244.678 28.9362C244.421 28.9513 244.139 28.993 243.829 29.0578C243.516 29.1244 243.203 29.2061 242.886 29.2949C242.567 29.3843 242.253 29.4848 241.94 29.5917C241.627 29.7006 241.334 29.8028 241.063 29.8952C240.618 30.061 240.2 30.2039 239.814 30.3289C239.425 30.457 239.087 30.527 238.805 30.5431C238.562 30.5572 238.353 30.535 238.179 30.4782C238.001 30.418 237.858 30.3343 237.744 30.2234C237.632 30.1138 237.549 29.983 237.493 29.8368C237.438 29.6892 237.406 29.5366 237.399 29.3742C237.393 29.074 237.41 28.7072 237.459 28.2672C237.65 26.6602 238.012 25.2342 238.322 23.7857C238.631 22.3388 238.887 20.8636 238.875 19.1659C238.863 17.5328 238.492 16.4533 238.739 15.2229C238.777 15.0461 238.845 14.8922 238.937 14.7637C239.03 14.6346 239.16 14.5382 239.313 14.4666C239.466 14.3953 239.668 14.3506 239.915 14.3368C240.134 14.3247 240.319 14.3546 240.461 14.4229C240.604 14.4928 240.719 14.5903 240.806 14.7103C240.892 14.8303 240.921 14.9846 240.993 15.1275C241.755 16.6191 241.468 19.0584 240.959 21.4775C240.449 23.8986 239.678 26.3032 239.55 27.7283C239.536 27.9199 239.53 28.0746 239.532 28.1942C239.533 28.2608 239.539 28.3223 239.553 28.3761C239.567 28.4346 239.591 28.4605 239.623 28.4588C239.738 28.4524 239.898 28.4235 240.085 28.3727C240.276 28.3213 240.482 28.2608 240.705 28.1895C240.927 28.1146 241.161 28.0369 241.397 27.9492C241.641 27.8648 241.863 27.7821 242.065 27.7058C242.117 27.691 242.211 27.6634 242.354 27.6214C242.493 27.579 242.66 27.5336 242.852 27.4785C243.039 27.4281 243.245 27.3729 243.457 27.3178C243.669 27.2674 243.871 27.2139 244.062 27.1669C244.25 27.1228 244.424 27.0825 244.574 27.0516C244.72 27.0257 244.824 27.0052 244.88 27.0028C244.963 26.9988 245.106 26.9753 245.319 26.9312C245.531 26.8926 245.781 26.8633 246.067 26.8468C246.523 26.8193 246.852 26.861 247.048 26.9638C247.249 27.0701 247.34 27.2691 247.326 27.5629C247.319 27.6829 247.295 27.8029 247.249 27.928C247.211 28.053 247.152 28.1666 247.068 28.2672ZM249.723 16.0183C249.732 16.215 249.713 16.4033 249.661 16.5851C249.609 16.7663 249.532 16.9371 249.428 17.0995C249.219 17.4276 248.881 17.6061 248.419 17.632C248.259 17.6417 248.088 17.6354 247.918 17.6142C247.747 17.593 247.594 17.562 247.458 17.5136C247.319 17.4696 247.208 17.4044 247.117 17.3267C247.024 17.2457 246.978 17.1529 246.975 17.046C246.968 16.8595 247.002 16.6628 247.09 16.4486C247.176 16.2392 247.288 16.0378 247.431 15.8563C247.573 15.6711 247.73 15.5138 247.904 15.387C248.078 15.262 248.248 15.1937 248.412 15.1843C248.613 15.1729 248.794 15.1745 248.954 15.194C249.114 15.2119 249.247 15.2509 249.361 15.3124C249.469 15.3709 249.556 15.4576 249.619 15.5722C249.684 15.6892 249.715 15.8375 249.723 16.0183ZM255.458 23.1073C255.456 23.2451 255.402 23.4236 255.29 23.6411C255.175 23.8603 255.023 24.1054 254.828 24.375C254.629 24.6459 254.389 24.938 254.118 25.245C253.843 25.5566 253.547 25.8746 253.234 26.2041C252.886 26.5628 252.524 26.9151 252.135 27.2674C251.755 27.6147 251.352 27.9555 250.931 28.2837C250.527 28.6064 250.134 28.8615 249.751 29.0481C249.372 29.2347 249.017 29.3389 248.683 29.3581C248.29 29.3809 247.949 29.3305 247.667 29.2071C247.378 29.0821 247.138 28.9052 246.94 28.6746C246.738 28.4443 246.578 28.1747 246.463 27.8664C246.345 27.5612 246.258 27.2334 246.195 26.8875C246.133 26.5433 246.091 26.1896 246.08 25.8326C246.067 25.4753 246.063 25.1327 246.073 24.8113C246.073 24.6849 246.091 24.495 246.108 24.2418C246.133 23.9884 246.157 23.7238 246.188 23.4431C246.216 23.1624 246.248 22.8894 246.279 22.6282C246.303 22.3653 246.334 22.1576 246.373 22.0083C246.446 21.7078 246.637 21.4173 246.943 21.1366C247.239 20.867 247.57 20.7224 247.945 20.7016C248.325 20.6807 248.522 20.903 248.54 21.3719C248.549 21.5928 248.54 21.8281 248.512 22.0812C248.488 22.331 248.453 22.5764 248.412 22.8181C248.342 23.2612 248.29 23.6562 248.252 24.0112C248.214 24.3619 248.192 24.6735 248.179 24.9431C248.164 25.246 248.165 25.5435 248.182 25.8292C248.203 26.115 248.234 26.3665 248.286 26.5873C248.339 26.8112 248.408 26.9867 248.498 27.1198C248.592 27.2513 248.704 27.3111 248.839 27.303C249.014 27.295 249.188 27.2691 249.375 27.225C249.56 27.1797 249.786 27.0791 250.054 26.9201C250.569 26.6132 251.129 26.2024 251.735 25.688C251.943 25.5126 252.183 25.3001 252.455 25.0567C252.726 24.8083 252.998 24.5582 253.265 24.3017C253.533 24.0455 253.781 23.7927 254.01 23.5469C254.237 23.3029 254.414 23.0925 254.542 22.9156C254.563 22.8847 254.584 22.8457 254.615 22.7986C254.647 22.7533 254.685 22.7028 254.723 22.6541C254.762 22.6023 254.807 22.56 254.856 22.5243C254.901 22.4904 254.956 22.4692 255.002 22.4675C255.092 22.4628 255.162 22.4739 255.203 22.4951C255.252 22.521 255.301 22.6006 255.357 22.7354C255.423 22.883 255.459 23.0071 255.458 23.1073ZM266.08 21.8133C266.084 21.9253 266.066 22.0537 266.031 22.1885C265.997 22.3263 265.948 22.4611 265.885 22.5959C265.826 22.7321 265.76 22.8619 265.687 22.9805C265.607 23.1022 265.53 23.2044 265.464 23.2824C265.262 23.5338 265.029 23.8001 264.772 24.0811C264.5 24.3666 264.22 24.6479 263.926 24.9249C263.629 25.206 263.327 25.4699 263.018 25.7271C262.708 25.9856 262.406 26.2121 262.107 26.4118C261.88 26.5661 261.661 26.7107 261.456 26.8455C261.244 26.9783 261.028 27.1003 260.812 27.2072C260.6 27.3161 260.377 27.4039 260.144 27.4704C259.918 27.5383 259.671 27.5824 259.41 27.5985C258.982 27.6244 258.641 27.5532 258.387 27.3942C258.129 27.2301 257.938 27.0062 257.806 26.7188C257.674 26.4297 257.585 26.0935 257.545 25.7123C257.505 25.331 257.482 24.9334 257.476 24.5162C257.448 23.9511 257.392 23.508 257.298 23.1785C257.211 22.8521 257.093 22.6934 256.96 22.7011C256.843 22.7079 256.731 22.7418 256.623 22.8037C256.508 22.8669 256.369 22.995 256.202 23.1916C256.031 23.3879 255.812 23.6687 255.538 24.0388C255.255 24.4089 254.883 24.9041 254.414 25.5206C254.254 25.7317 254.059 25.9698 253.833 26.2316C253.604 26.4955 253.37 26.748 253.126 26.9897C252.883 27.2335 252.65 27.451 252.413 27.6392C252.187 27.8291 251.978 27.9589 251.797 28.0369C251.094 27.9102 250.796 27.2106 250.906 25.9348C250.935 25.6087 251 25.1313 251.115 24.4983C251.16 24.2156 251.216 23.9154 251.265 23.6021C251.317 23.2871 251.372 22.9724 251.432 22.6541C251.487 22.3344 251.557 22.0244 251.637 21.7158C251.721 21.4059 251.814 21.1218 251.929 20.8556C251.992 20.708 252.068 20.591 252.152 20.5036C252.235 20.4125 252.323 20.3459 252.409 20.2972C252.5 20.2535 252.594 20.2195 252.695 20.2014C252.792 20.1839 252.89 20.1708 252.991 20.1657C253.077 20.1614 253.165 20.1778 253.248 20.2195C253.328 20.2602 253.408 20.3217 253.474 20.401C253.544 20.479 253.596 20.5812 253.641 20.6982C253.683 20.8165 253.709 20.953 253.714 21.1074C253.719 21.2432 253.713 21.3766 253.693 21.505C253.675 21.6311 253.648 21.7646 253.613 21.9028C253.578 22.0389 253.54 22.1834 253.502 22.3361C253.467 22.4887 253.426 22.6591 253.38 22.8555C253.352 22.9822 253.311 23.1476 253.251 23.3473C253.196 23.5469 253.13 23.7547 253.071 23.9722C252.997 24.1881 252.939 24.3992 252.872 24.6052C252.817 24.813 252.771 24.9818 252.747 25.1216C252.865 24.9902 252.997 24.8261 253.151 24.6311C253.3 24.4331 253.457 24.224 253.62 23.9934C253.784 23.7678 253.944 23.5352 254.108 23.2985C254.271 23.0632 254.424 22.8393 254.577 22.6248C254.779 22.3505 254.967 22.091 255.155 21.8476C255.346 21.6022 255.548 21.3881 255.76 21.2032C255.972 21.023 256.206 20.875 256.459 20.7584C256.713 20.6464 256.999 20.5802 257.322 20.5617C257.701 20.5402 258.011 20.6041 258.258 20.7503C258.505 20.8929 258.705 21.0999 258.86 21.3753C259.015 21.6486 259.135 21.9791 259.219 22.3603C259.292 22.7418 259.351 23.159 259.375 23.6102C259.382 23.8425 259.396 24.0811 259.407 24.3245C259.417 24.5679 259.448 24.7854 259.504 24.9835C259.546 25.1768 259.618 25.3384 259.72 25.4591C259.823 25.5815 259.967 25.6353 260.148 25.6248C260.412 25.6097 260.718 25.517 261.059 25.3505C261.4 25.1845 261.765 24.9656 262.155 24.6879C262.541 24.4089 262.942 24.0875 263.342 23.7255C263.735 23.3604 264.118 22.9724 264.487 22.5633C264.605 22.4302 264.711 22.3008 264.814 22.172C264.916 22.0429 265.015 21.9253 265.113 21.8214C265.207 21.7175 265.301 21.6314 265.391 21.5683C265.485 21.5017 265.576 21.4654 265.669 21.4597C265.704 21.4576 265.746 21.461 265.791 21.4677C265.84 21.4741 265.882 21.4872 265.927 21.5131C265.969 21.537 266.003 21.5733 266.031 21.6203C266.059 21.664 266.077 21.7306 266.08 21.8133ZM265.273 20.4222C265.268 20.2948 265.248 20.1691 265.221 20.0491C265.189 19.9321 265.144 19.8608 265.081 19.8329C264.883 19.8444 264.674 19.9465 264.459 20.1301C264.239 20.3184 264.034 20.5748 263.843 20.9093C263.651 21.2405 263.484 21.6348 263.342 22.0974C263.192 22.5569 263.07 23.0682 262.969 23.6182C263.258 23.3943 263.551 23.159 263.829 22.9106C264.104 22.6655 264.358 22.409 264.57 22.1428C264.789 21.8799 264.96 21.6055 265.092 21.3198C265.227 21.0327 265.284 20.7339 265.273 20.4222ZM272.176 21.6802C272.183 21.7874 272.11 21.9888 271.964 22.284C271.664 22.7469 271.306 23.2078 270.892 23.6687C270.457 24.1295 269.987 24.5696 269.486 24.9868C268.972 25.404 268.442 25.7936 267.907 26.1587C267.374 26.5208 266.846 26.8388 266.327 27.1101C265.816 27.3844 265.318 27.6066 264.834 27.7754C264.352 27.9441 263.898 28.0416 263.464 28.0692C262.493 28.131 261.783 27.8906 261.341 27.3471C260.896 26.8048 260.789 25.9509 260.965 24.7837C261.036 24.3185 261.108 23.8583 261.195 23.4007C261.281 22.9462 261.376 22.4934 261.512 22.0439C261.644 21.5975 261.821 21.151 262.044 20.7144C262.267 20.2746 262.542 19.8427 262.879 19.4208C263.001 19.2681 263.147 19.1155 263.314 18.9679C263.477 18.82 263.659 18.6859 263.85 18.5686C264.041 18.4509 264.243 18.3494 264.452 18.273C264.66 18.1937 264.873 18.1466 265.085 18.1352C265.395 18.1174 265.662 18.1628 265.895 18.2684C266.125 18.3753 266.316 18.5232 266.47 18.7178C266.626 18.9061 266.741 19.1303 266.821 19.3868C266.905 19.643 266.948 19.916 266.96 20.2014C266.983 20.7305 266.811 21.2956 266.449 21.8863C266.08 22.4806 265.541 23.0941 264.817 23.7335C264.577 23.9383 264.295 24.1605 263.972 24.4008C263.641 24.6459 263.279 24.9152 262.869 25.2204C262.855 25.3697 262.869 25.5062 262.914 25.6343C262.963 25.7627 263.043 25.8683 263.147 25.959C263.251 26.0515 263.384 26.118 263.544 26.1667C263.707 26.2121 263.898 26.2263 264.121 26.2121C264.403 26.194 264.713 26.1409 265.047 26.0468C265.384 25.9509 265.725 25.8336 266.063 25.6897C266.407 25.5435 266.745 25.3811 267.079 25.2009C267.409 25.0177 267.719 24.8308 267.997 24.6378C268.484 24.2969 268.961 23.9302 269.403 23.5422C269.827 23.1526 270.234 22.7549 270.607 22.3522C270.753 22.1868 270.899 22.0194 271.049 21.8506C271.358 21.5407 271.627 21.3783 271.856 21.3655C271.974 21.3591 272.054 21.3944 272.103 21.4741C272.152 21.5521 272.176 21.6203 272.176 21.6802Z" fill="#393185"/>
<path d="M187.263 35.6435C187.25 36.0433 187.299 36.323 187.408 36.482C187.517 36.6457 187.698 36.6941 187.942 36.6337C188.186 36.5737 188.368 36.4316 188.492 36.2069C188.611 35.9805 188.686 35.6618 188.699 35.2472C188.712 34.8431 188.658 34.5575 188.549 34.3912C188.435 34.2277 188.258 34.182 188.025 34.2507C187.782 34.3227 187.59 34.4797 187.465 34.7107C187.341 34.9427 187.275 35.2511 187.263 35.6435ZM187.149 34.3669C187.419 34.0655 187.699 33.8179 187.974 33.6323C188.248 33.444 188.554 33.295 188.891 33.19C189.601 32.9683 190.138 32.9765 190.504 33.217C190.874 33.4599 191.046 33.9283 191.022 34.6134C191 35.2684 190.789 35.8392 190.39 36.3176C189.996 36.7925 189.467 37.1045 188.819 37.2576C188.482 37.337 188.181 37.3607 187.906 37.3311C187.636 37.3024 187.393 37.2228 187.185 37.0915C187.18 37.4382 187.163 37.7853 187.149 38.1324C187.143 38.2781 187.18 38.367 187.253 38.4007C187.325 38.4329 187.476 38.4269 187.704 38.3789C187.756 38.3683 187.808 38.3567 187.859 38.3458C187.849 38.5778 187.844 38.8108 187.839 39.0425C186.63 39.2803 185.417 39.5049 184.214 39.7159C184.225 39.5049 184.23 39.2924 184.24 39.0782C184.318 39.0644 184.401 39.0481 184.484 39.0324C184.686 38.9937 184.819 38.9478 184.888 38.8889C184.953 38.8343 184.985 38.7312 184.992 38.5866C185.016 38.0726 185.036 37.5574 185.059 37.042C185.083 36.5266 185.104 36.0092 185.116 35.496C185.12 35.3556 185.096 35.2688 185.033 35.2443C184.972 35.2198 184.841 35.236 184.639 35.2976C184.556 35.3229 184.473 35.3474 184.396 35.3713C184.401 35.1573 184.411 34.9461 184.417 34.7321C185.329 34.4431 186.247 34.1513 187.165 33.8606C187.159 34.0306 187.154 34.1988 187.149 34.3669ZM194.32 32.0841C194.507 31.8433 194.719 31.6413 194.943 31.4876C195.175 31.3277 195.414 31.2113 195.668 31.1388C196.062 31.0267 196.368 31.0346 196.596 31.1589C196.83 31.2862 196.936 31.5118 196.933 31.8333C196.931 32.1087 196.834 32.3597 196.643 32.5736C196.45 32.7899 196.202 32.9347 195.897 33.0146C195.653 33.0781 195.452 33.0659 195.295 32.9838C195.136 32.9009 195.059 32.7697 195.062 32.5824C195.064 32.4543 195.098 32.3332 195.181 32.2146C195.264 32.0962 195.393 31.9803 195.549 31.869C195.508 31.8722 195.471 31.8758 195.43 31.8828C195.393 31.889 195.351 31.8989 195.316 31.9083C195.02 31.9877 194.788 32.166 194.616 32.4316C194.441 32.7005 194.359 33.0247 194.346 33.4113C194.333 33.8231 194.317 34.2341 194.31 34.6438C194.307 34.8134 194.329 34.9215 194.393 34.9559C194.464 34.9938 194.6 34.9839 194.813 34.9339C194.927 34.9073 195.041 34.8815 195.16 34.8529C195.15 35.1158 195.145 35.3785 195.134 35.6413C193.89 35.9264 192.645 36.2188 191.401 36.5097C191.416 36.2612 191.422 36.0119 191.432 35.7639C191.494 35.7479 191.557 35.7313 191.619 35.7161C191.831 35.6638 191.967 35.6001 192.028 35.5383C192.101 35.465 192.144 35.3521 192.148 35.1883C192.16 34.6116 192.182 34.0309 192.194 33.4556C192.198 33.2875 192.167 33.1879 192.106 33.1572C192.043 33.1257 191.909 33.1369 191.696 33.198C191.634 33.2157 191.572 33.2341 191.51 33.253C191.515 33.0049 191.52 32.7571 191.525 32.5079C192.459 32.2299 193.397 31.9518 194.331 31.6754C194.326 31.8127 194.326 31.9482 194.32 32.0841ZM203.005 32.3383C202.871 32.963 202.57 33.4711 202.114 33.8588C201.647 34.2455 201.019 34.5149 200.226 34.6823C199.313 34.875 198.603 34.8187 198.085 34.5123C197.572 34.2092 197.323 33.7006 197.338 32.9808C197.353 32.2683 197.634 31.6284 198.168 31.0622C198.707 30.494 199.422 30.0844 200.309 29.8478C201.19 29.6126 201.858 29.6634 202.326 29.9946C202.786 30.3201 203.009 30.9098 202.99 31.7434C202.989 31.7992 202.99 31.8554 202.99 31.91C201.839 32.169 200.698 32.429 199.557 32.6992C199.552 32.7321 199.552 32.7633 199.552 32.794C199.548 33.1686 199.63 33.4363 199.806 33.594C199.977 33.7537 200.236 33.7968 200.569 33.7243C200.853 33.6622 201.092 33.537 201.279 33.3513C201.465 33.1665 201.59 32.9253 201.657 32.6335C202.109 32.535 202.56 32.4366 203.005 32.3383ZM199.578 31.8684C200.107 31.7372 200.631 31.6077 201.165 31.4792C201.17 31.4554 201.17 31.4317 201.17 31.4081C201.17 31.1089 201.097 30.8953 200.968 30.7637C200.828 30.6383 200.63 30.6072 200.377 30.672C200.128 30.7355 199.931 30.8764 199.796 31.081C199.651 31.2906 199.583 31.5527 199.578 31.8684ZM206.345 29.1365C206.62 28.8141 206.909 28.5544 207.211 28.359C207.516 28.161 207.864 28.0193 208.227 27.9434C208.569 27.872 208.854 27.8685 209.098 27.9245C209.331 27.9856 209.528 28.1086 209.674 28.2985C209.933 28.0328 210.208 27.8133 210.498 27.6449C210.794 27.4736 211.094 27.3537 211.411 27.2941C212.058 27.1722 212.515 27.2332 212.79 27.462C213.065 27.6894 213.181 28.1473 213.179 28.8286C213.176 29.4636 213.172 30.1027 213.169 30.738C213.167 30.9431 213.199 31.073 213.262 31.1249C213.328 31.1793 213.469 31.1882 213.677 31.1562C213.718 31.1498 213.76 31.1437 213.806 31.1374C213.796 31.4489 213.796 31.7616 213.791 32.0727C212.702 32.2334 211.618 32.3966 210.529 32.5629C210.535 32.2576 210.539 31.9524 210.545 31.6468C210.731 31.6096 210.856 31.5557 210.913 31.4871C210.98 31.4163 211.008 31.281 211.012 31.0791C211.023 30.4845 211.029 29.8929 211.032 29.2973C211.034 28.9983 210.991 28.7919 210.908 28.6802C210.82 28.5719 210.679 28.5314 210.472 28.5718C210.239 28.6172 210.062 28.7436 209.943 28.9492C209.84 29.148 209.782 29.4426 209.777 29.8275C209.771 30.32 209.76 30.8101 209.757 31.301C209.755 31.5011 209.777 31.6303 209.819 31.6831C209.871 31.734 209.964 31.7499 210.104 31.7242C210.14 31.7177 210.182 31.7107 210.218 31.7034C210.208 32.0088 210.208 32.3142 210.203 32.618C209.176 32.7922 208.154 32.9676 207.128 33.1462C207.133 32.8497 207.133 32.5519 207.143 32.2538C207.18 32.2461 207.216 32.2393 207.252 32.2329C207.392 32.2072 207.485 32.1566 207.527 32.0858C207.584 32.0125 207.607 31.8815 207.61 31.6871C207.618 31.1088 207.634 30.5275 207.641 29.9478C207.645 29.656 207.599 29.4555 207.511 29.3516C207.423 29.2465 207.272 29.2155 207.071 29.2595C206.837 29.3101 206.661 29.4388 206.552 29.6396C206.443 29.8416 206.385 30.1333 206.381 30.5179C206.375 30.9899 206.371 31.4623 206.36 31.9325C206.356 32.1184 206.38 32.2414 206.438 32.292C206.499 32.3452 206.615 32.3529 206.78 32.3206C206.796 32.3176 206.811 32.3146 206.827 32.3125C206.816 32.6092 206.816 32.9073 206.811 33.2023C205.697 33.414 204.587 33.6255 203.472 33.8416C203.482 33.5539 203.482 33.2649 203.493 32.9755C203.555 32.9627 203.617 32.9496 203.68 32.9368C203.887 32.8943 204.023 32.8332 204.089 32.7633C204.163 32.6856 204.201 32.5565 204.203 32.3663C204.211 31.6999 204.223 31.031 204.234 30.3615C204.238 30.1683 204.207 30.0518 204.141 30.0088C204.078 29.9674 203.939 29.9695 203.732 30.0198C203.669 30.035 203.607 30.0487 203.545 30.0647C203.55 29.7755 203.555 29.4863 203.555 29.1973C204.488 28.971 205.422 28.7581 206.355 28.5435C206.355 28.7412 206.35 28.9389 206.345 29.1365ZM214.931 25.4882C214.931 25.217 215.03 24.9697 215.217 24.751C215.414 24.5334 215.637 24.4025 215.917 24.359C216.191 24.3163 216.42 24.3779 216.606 24.5395C216.798 24.7009 216.886 24.9171 216.886 25.1883C216.886 25.461 216.793 25.7052 216.601 25.9226C216.409 26.14 216.181 26.2691 215.906 26.3098C215.627 26.3509 215.398 26.2928 215.206 26.1358C215.025 25.9766 214.931 25.7653 214.931 25.4882ZM217.104 30.1916C217.103 30.3993 217.13 30.534 217.192 30.5903C217.255 30.6466 217.395 30.6617 217.602 30.635C217.664 30.6271 217.726 30.6196 217.789 30.6112C217.783 30.9298 217.789 31.2495 217.783 31.5667C216.58 31.7142 215.388 31.8615 214.195 32.0132C214.2 31.7018 214.2 31.3877 214.211 31.0747C214.283 31.0643 214.351 31.0542 214.428 31.0437C214.641 31.0144 214.776 30.9641 214.838 30.8924C214.911 30.817 214.946 30.6771 214.947 30.4706C214.951 29.7483 214.968 29.025 214.968 28.3012C214.968 28.0918 214.937 27.9618 214.869 27.9101C214.802 27.8584 214.667 27.8483 214.46 27.8815C214.382 27.8938 214.309 27.907 214.237 27.9188C214.237 27.6077 214.242 27.2951 214.242 26.9811C215.201 26.8213 216.16 26.6812 217.12 26.5407C217.12 27.1511 217.117 27.7589 217.114 28.3673C217.112 28.9749 217.108 29.5843 217.104 30.1916ZM222.502 30.3844C222.263 30.7111 221.988 30.9691 221.662 31.1551C221.34 31.347 220.977 31.4605 220.588 31.4963C219.93 31.5571 219.463 31.4579 219.194 31.1994C218.924 30.9381 218.789 30.4538 218.795 29.7464C218.799 29.0915 218.805 28.4339 218.805 27.7807C218.805 27.567 218.773 27.4315 218.706 27.3751C218.639 27.3179 218.499 27.3033 218.292 27.3304C218.234 27.3377 218.183 27.3454 218.126 27.3536C218.126 27.0352 218.131 26.7151 218.126 26.3954C219.069 26.2763 220.013 26.1735 220.962 26.0673C220.962 26.6275 220.962 27.1877 220.962 27.7464C220.962 28.3052 220.95 28.8659 220.946 29.4248C220.945 29.7252 221.003 29.9459 221.117 30.0811C221.231 30.2177 221.403 30.2736 221.636 30.2539C221.89 30.2328 222.087 30.1245 222.237 29.9222C222.383 29.7231 222.454 29.4574 222.455 29.1286C222.458 28.5566 222.46 27.9829 222.46 27.4111C222.46 27.1915 222.428 27.0508 222.362 26.9921C222.298 26.9358 222.165 26.9108 221.958 26.9323C221.885 26.9397 221.812 26.9474 221.745 26.9546C221.745 26.6303 221.75 26.3055 221.745 25.9829C222.699 25.8989 223.658 25.8323 224.612 25.7658C224.612 26.3922 224.61 27.0204 224.612 27.6453C224.615 28.2701 224.607 28.8972 224.607 29.5239C224.607 29.7376 224.642 29.8779 224.705 29.9397C224.771 30.0034 224.908 30.0274 225.121 30.0153C225.193 30.0114 225.271 30.0061 225.349 30.0014C225.343 30.3288 225.349 30.6573 225.349 30.983C224.394 31.0393 223.451 31.0922 222.502 31.1464C222.507 30.8928 222.502 30.6379 222.502 30.3844ZM228.527 26.2873C228.797 25.9887 229.08 25.7672 229.383 25.6294C229.686 25.4913 230.031 25.4346 230.404 25.4467C230.741 25.4577 231.031 25.5266 231.27 25.6522C231.509 25.7778 231.706 25.9626 231.861 26.2069C232.11 25.9827 232.378 25.8068 232.67 25.7056C232.963 25.6041 233.272 25.5825 233.593 25.6139C234.236 25.6774 234.703 25.8696 234.978 26.1885C235.247 26.5073 235.387 27.0281 235.392 27.7471C235.397 28.4176 235.399 29.0912 235.403 29.7618C235.404 29.9784 235.434 30.1217 235.501 30.1956C235.569 30.2692 235.709 30.3149 235.921 30.3344C235.963 30.3379 236.004 30.3426 236.051 30.3435C236.051 30.6725 236.056 30.9995 236.056 31.3267C234.962 31.2325 233.873 31.1366 232.784 31.0404C232.789 30.7101 232.784 30.3816 232.784 30.0513C232.976 30.061 233.095 30.0368 233.157 29.9782C233.215 29.9213 233.247 29.7811 233.246 29.5648C233.242 28.9295 233.24 28.2897 233.24 27.6499C233.24 27.3285 233.189 27.0962 233.1 26.9509C233.017 26.8056 232.867 26.7183 232.66 26.7057C232.427 26.6915 232.255 26.7874 232.141 26.9808C232.037 27.1695 231.978 27.477 231.981 27.8928C231.983 28.426 231.981 28.9587 231.981 29.4923C231.981 29.7105 232.006 29.854 232.058 29.9224C232.105 29.9884 232.198 30.0268 232.338 30.0303C232.374 30.0311 232.411 30.0316 232.452 30.0328C232.452 30.3629 232.458 30.6916 232.458 31.0202C231.431 30.9894 230.404 30.9589 229.377 30.9267C229.383 30.5946 229.377 30.2661 229.377 29.936C229.414 29.9374 229.45 29.9379 229.486 29.9387C229.621 29.9422 229.715 29.9114 229.766 29.8431C229.813 29.7761 229.844 29.6362 229.844 29.4225C229.844 28.7841 229.839 28.1445 229.839 27.5047C229.839 27.1833 229.787 26.9525 229.699 26.8133C229.611 26.6726 229.466 26.5947 229.253 26.5946C229.025 26.5945 228.854 26.6982 228.74 26.8963C228.636 27.0952 228.579 27.4084 228.579 27.8377C228.579 28.3608 228.579 28.8858 228.579 29.4107C228.579 29.6169 228.607 29.7601 228.667 29.8284C228.731 29.9007 228.848 29.9307 229.009 29.9307C229.025 29.9307 229.04 29.9309 229.056 29.9317C229.056 30.2603 229.061 30.5891 229.061 30.9178C227.946 30.9335 226.831 30.9536 225.717 30.9737C225.722 30.6445 225.717 30.3175 225.722 29.9887C225.784 29.9861 225.847 29.9849 225.909 29.9838C226.121 29.9804 226.256 29.9398 226.318 29.8751C226.386 29.8046 226.422 29.666 226.422 29.4508C226.422 28.6943 226.426 27.9395 226.422 27.1835C226.421 26.9654 226.389 26.8247 226.323 26.7601C226.26 26.6977 226.121 26.6653 225.914 26.6696C225.851 26.671 225.789 26.6716 225.727 26.6759C225.727 26.3485 225.727 26.0198 225.727 25.6911C226.655 25.6683 227.589 25.6471 228.522 25.6287C228.527 25.8481 228.527 26.0677 228.527 26.2873Z" fill="#393185"/>
<path d="M133.939 20.3483C133.84 19.3202 133.699 18.5668 133.513 18.0854C133.328 17.6041 133.072 17.3535 132.745 17.345C132.576 17.3406 132.397 17.3353 132.239 17.3293C132.301 16.2004 132.385 15.0666 132.49 13.9353C132.633 13.9361 132.775 13.937 132.917 13.9378C132.83 14.9254 132.759 15.9142 132.705 16.8992C132.863 16.9052 133.042 16.9105 133.211 16.9149C133.538 16.9234 133.794 17.174 133.979 17.6553C134.165 18.1366 134.307 18.8901 134.405 19.9182C134.753 25.0244 136.758 32.1065 138.942 37.9205C140.049 38.0736 141.169 38.1959 142.29 38.3199C142.288 38.4806 142.287 38.6411 142.286 38.8014C141.011 38.6591 139.736 38.5248 138.475 38.3506C136.292 32.5367 134.287 25.4545 133.939 20.3483ZM138.863 17.0478C138.855 17.1941 138.846 17.3403 138.838 17.4867C138.627 17.4803 138.436 17.4787 138.235 17.4757C138.212 17.4754 138.19 17.4754 138.168 17.4758L138.168 17.4655C138.172 17.338 138.186 17.224 138.208 17.1245C138.329 17.0675 138.494 17.0426 138.702 17.0456C138.756 17.0464 138.81 17.0471 138.863 17.0478ZM140.446 29.7972C140.575 28.4635 140.723 27.1236 140.906 25.7796C141.195 23.6508 141.548 21.5148 141.945 19.3759C141.98 19.1732 142.012 18.9945 142.031 18.8346C142.049 18.6878 142.071 18.5648 142.076 18.4611C142.095 18.1005 142.044 17.8524 141.934 17.713C141.833 17.5817 141.63 17.5103 141.292 17.507C141.101 17.5052 140.911 17.5025 140.742 17.5017C140.8 16.3223 140.857 15.1454 140.946 13.9687L141.381 13.9701C141.309 15.003 141.259 16.0363 141.208 17.0715C141.377 17.0724 141.568 17.0751 141.758 17.0769C142.096 17.0802 142.3 17.1516 142.4 17.2828C142.51 17.4222 142.562 17.6704 142.543 18.031C142.537 18.1347 142.515 18.2576 142.497 18.4044C142.478 18.5644 142.446 18.7431 142.411 18.9458C142.015 21.0846 141.661 23.2207 141.372 25.3495C141.13 27.1297 140.949 28.9029 140.792 30.6638C140.681 30.4166 140.565 30.1268 140.446 29.7972ZM145.89 17.1164C145.884 17.2593 145.878 17.4022 145.872 17.5452C145.735 17.5445 145.597 17.5458 145.459 17.5458C145.385 17.5459 145.316 17.5537 145.25 17.5694C145.278 17.4895 145.307 17.4164 145.336 17.3499C145.463 17.2289 145.607 17.1552 145.773 17.1278C145.767 17.2668 145.761 17.4057 145.756 17.5446C145.925 17.5454 146.115 17.5499 146.316 17.55C146.708 17.5502 146.939 17.6644 147.038 17.8871C147.139 18.1163 147.156 18.7215 147.126 19.6999C147.056 22.0013 147.02 24.3015 147.065 26.5968C147.11 28.8931 147.251 31.1783 147.443 33.4585C147.485 33.9606 147.507 34.3624 147.507 34.6657L147.535 34.6662C147.705 34.6693 147.846 34.6489 147.957 34.6065C147.989 34.297 147.972 33.773 147.909 33.0283C147.717 30.7482 147.577 28.463 147.531 26.1667C147.486 23.8714 147.522 21.5713 147.592 19.2698C147.622 18.2914 147.605 17.6862 147.504 17.4571C147.406 17.2343 147.174 17.1201 146.783 17.1199C146.581 17.1197 146.391 17.1153 146.222 17.1145C146.229 16.9494 146.236 16.7842 146.243 16.6191C146.246 16.619 146.25 16.619 146.254 16.619C146.289 16.619 146.324 16.6189 146.359 16.6187C146.352 16.7842 146.345 16.9496 146.338 17.115C146.201 17.1144 146.063 17.1157 145.925 17.1157C145.913 17.1158 145.901 17.116 145.89 17.1164ZM152.411 17.0968C152.406 17.2399 152.402 17.3829 152.397 17.5259C152.196 17.525 151.984 17.5265 151.772 17.5283C151.74 17.5286 151.71 17.5295 151.68 17.5312C151.696 17.4008 151.714 17.2884 151.734 17.194C151.86 17.1322 152.026 17.1 152.238 17.0982C152.296 17.0977 152.354 17.0972 152.411 17.0968ZM153.621 34.4343C153.637 34.3878 153.653 34.3395 153.668 34.2893C153.836 33.7748 153.92 33.0767 153.963 32.1953C154.006 31.3153 154.014 30.1082 153.98 28.5545C154.138 28.545 154.296 28.5353 154.454 28.5256C154.479 29.8875 154.469 30.9624 154.429 31.7652C154.386 32.6466 154.302 33.3447 154.134 33.8591C154.103 33.9639 154.069 34.0603 154.031 34.1489C153.986 34.1923 153.938 34.2316 153.887 34.267C153.787 34.3371 153.714 34.3917 153.621 34.4343ZM156.579 38.3812C156.596 38.5114 156.613 38.6416 156.631 38.7718C153.178 39.0433 150.135 39.1249 146.657 39.0813C146.469 37.922 146.324 36.7549 146.169 35.5823C146.354 35.5831 146.52 35.5886 146.693 35.5922C146.827 36.6168 146.959 37.637 147.123 38.6512C150.427 38.6926 153.337 38.6211 156.579 38.3812ZM162.685 25.842C162.535 24.9294 162.388 24.0162 162.259 23.0989C162.21 22.7505 162.162 22.4019 162.116 22.0531C162.198 21.3826 162.287 20.7128 162.381 20.043C162.486 20.9206 162.603 21.7952 162.725 22.6687C162.872 23.7131 163.043 24.7521 163.213 25.791C163.037 25.8081 162.861 25.8251 162.685 25.842ZM163.324 37.854C163.174 36.7322 163.045 35.6077 162.917 34.4755C163.079 34.4522 163.241 34.4249 163.402 34.4004C163.409 34.3994 163.416 34.3983 163.423 34.3973C163.538 35.4107 163.655 36.4184 163.79 37.4239C165.82 37.0373 167.579 36.6697 169.552 36.2C169.564 36.3032 169.576 36.4063 169.588 36.5093C167.406 37.0381 165.524 37.4349 163.324 37.854ZM164.239 33.4671C164.224 33.3075 164.216 33.1554 164.184 33.0189C164.144 32.8486 164.117 32.6929 164.073 32.5326C163.866 31.7068 163.681 30.8731 163.507 30.0367C162.753 30.1296 162.006 30.2226 161.26 30.3144C161.269 30.189 161.278 30.0636 161.288 29.9381C162.179 29.8289 163.072 29.7177 163.973 29.6066C164.147 30.443 164.332 31.2766 164.539 32.1024C164.583 32.2628 164.61 32.4185 164.65 32.5888C164.687 32.7481 164.693 32.9286 164.713 33.1176C164.722 33.2038 164.725 33.2816 164.722 33.3515C164.603 33.3962 164.441 33.4349 164.239 33.4671ZM162.074 37.7168C162.09 37.8344 162.106 37.9521 162.122 38.0697C160.494 38.3154 158.867 38.5478 157.226 38.7187C157.188 38.436 157.15 38.1527 157.113 37.869C157.217 37.8612 157.321 37.8531 157.426 37.8449C157.309 36.9679 157.195 36.0901 157.091 35.2105C157.126 35.2072 157.161 35.2038 157.196 35.2006C157.234 35.1971 157.271 35.19 157.307 35.1795C157.421 36.2209 157.552 37.2579 157.692 38.2886C159.16 38.1357 160.617 37.9336 162.074 37.7168ZM157.929 34.2796C158.034 33.8682 158.101 33.2936 158.162 32.5574C158.419 29.4096 158.773 26.271 159.255 23.1617C159.735 20.0668 160.338 17.0038 160.947 13.9798C161.074 13.9796 161.201 13.9794 161.327 13.9792C160.748 16.8637 160.178 19.7832 159.721 22.7316C159.239 25.8409 158.885 28.9795 158.628 32.1273C158.553 33.0378 158.469 33.7013 158.313 34.1142C158.309 34.1256 158.305 34.1368 158.301 34.1478C158.208 34.2217 158.105 34.2632 157.991 34.2737C157.97 34.2757 157.95 34.2776 157.929 34.2796ZM169.313 28.079C169.475 28.052 169.636 28.0248 169.798 27.9975C169.867 29.285 169.942 30.5826 170.063 31.8675C170.196 33.2676 170.338 34.6742 170.508 36.0736C170.864 35.9807 171.226 35.8836 171.586 35.7864C171.566 35.8931 171.548 35.9994 171.53 36.1053C171.037 36.239 170.534 36.3753 170.042 36.5037C170.025 36.3672 170.009 36.2307 169.993 36.0941L170.054 36.0792C170.038 35.944 170.022 35.8086 170.006 35.6731C170.131 35.6433 170.256 35.6131 170.383 35.5824C170.257 34.5196 170.133 33.4485 170.029 32.3805C169.833 32.4222 169.951 32.3874 169.767 32.4248C169.713 32.4358 169.661 32.4429 169.611 32.446L169.597 32.2977C169.465 30.8966 169.387 29.4806 169.313 28.079ZM175.888 31.3387C176.084 30.9029 176.166 30.399 176.122 29.8308C176.043 28.8293 175.353 28.1269 174.039 27.6986C173.601 27.5579 173.266 27.4388 173.014 27.3333C172.238 27.0068 171.606 26.7153 171.183 26.4491C170.75 26.1801 170.433 25.9115 170.242 25.6492C169.787 25.033 169.438 24.3293 169.227 23.5382C169.017 22.731 168.89 21.8109 168.906 20.758C168.94 18.5122 169.409 16.6872 170.274 15.3087C170.546 14.8902 170.84 14.5377 171.157 14.2509C171.127 14.2938 171.098 14.3374 171.069 14.3818C171.033 14.4406 170.996 14.5002 170.961 14.5605C170.886 14.6619 170.813 14.7679 170.741 14.8786C169.875 16.2571 169.406 18.0821 169.372 20.3278C169.356 21.3808 169.483 22.3009 169.693 23.1081C169.904 23.8992 170.253 24.6029 170.708 25.2191C170.899 25.4814 171.216 25.75 171.649 26.0191C172.072 26.2852 172.704 26.5766 173.48 26.9032C173.732 27.0086 174.067 27.1277 174.506 27.2685C175.82 27.6968 176.51 28.3991 176.588 29.4007C176.635 30.0053 176.539 30.537 176.315 30.9915C176.189 31.133 176.046 31.2491 175.888 31.3387ZM178.87 20.146C178.869 20.2716 178.868 20.3974 178.867 20.5232C178.244 20.5949 177.621 20.664 177.02 20.7331C176.863 19.3203 176.529 18.288 176.053 17.6135C175.58 16.9437 174.924 16.612 174.083 16.6485C173.828 16.6594 173.596 16.726 173.383 16.8509C173.392 16.8321 173.401 16.8134 173.41 16.7949C173.73 16.4245 174.106 16.2374 174.549 16.2183C175.39 16.1819 176.046 16.5136 176.519 17.1833C176.995 17.8579 177.329 18.8902 177.486 20.3029C177.939 20.251 178.403 20.1991 178.87 20.146ZM177.611 34.2444C177.05 34.8352 176.372 35.2569 175.573 35.5055C174.936 35.7037 174.317 35.737 173.695 35.6246C173.249 35.5439 172.797 35.3709 172.336 35.1158C172.372 34.9047 172.411 34.6918 172.452 34.4781C173.037 34.8482 173.603 35.0935 174.161 35.1945C174.783 35.3069 175.403 35.2735 176.039 35.0754C176.629 34.892 177.152 34.6145 177.611 34.2444ZM183.696 16.6601C183.47 16.6725 183.263 16.7313 183.075 16.8361L183.077 16.8314C183.089 16.8079 183.1 16.7848 183.112 16.762C183.4 16.4304 183.749 16.2527 184.163 16.23C184.312 16.2218 184.472 16.2129 184.632 16.2056C184.581 18.0284 184.533 19.8706 184.547 21.7198C184.562 23.5755 184.634 25.4469 184.739 27.3179C184.768 27.8434 184.767 28.2259 184.732 28.4737C184.618 28.5415 184.472 28.6001 184.296 28.6512L184.288 28.6534C184.299 28.4215 184.293 28.1208 184.273 27.7481C184.168 25.877 184.095 24.0056 184.081 22.1499C184.067 20.3007 184.114 18.4585 184.165 16.6358C184.006 16.643 183.845 16.6519 183.696 16.6601ZM181.76 20.5217C181.757 20.6185 181.755 20.717 181.754 20.8173C181.753 20.8456 181.748 20.8681 181.744 20.8947C181.196 20.9642 180.669 21.031 180.132 21.0979C180.151 19.8862 180.176 18.6766 180.209 17.4762C180.243 16.2801 180.286 15.0876 180.345 13.9053L180.79 13.9035C180.742 14.9452 180.705 15.9942 180.676 17.046C180.642 18.2464 180.617 19.4561 180.598 20.6678C180.987 20.6194 181.37 20.571 181.76 20.5217ZM191.672 19.2919C191.67 19.4168 191.668 19.5417 191.666 19.6668C191.129 19.731 190.603 19.7951 190.066 19.8566C190.058 19.8352 190.062 19.8111 190.063 19.7899C190.085 18.6606 189.952 17.8141 189.651 17.244C189.401 16.7579 189.044 16.4859 188.58 16.4275C188.586 16.2837 188.591 16.1401 188.597 15.9965C188.648 15.9937 188.701 15.9909 188.756 15.988C189.363 15.9555 189.817 16.2307 190.117 16.8139C190.419 17.3839 190.552 18.2305 190.529 19.3597C190.529 19.381 190.524 19.4051 190.532 19.4265C190.915 19.3827 191.292 19.3375 191.672 19.2919ZM189.907 29.8879C189.915 29.9775 189.924 30.067 189.932 30.1565C187.584 30.9271 185.244 31.714 182.925 32.4982C182.821 31.6061 182.739 30.7142 182.667 29.8196C182.828 29.7749 182.992 29.7268 183.157 29.6786C183.223 30.4763 183.299 31.2721 183.392 32.0681C185.548 31.3386 187.724 30.6068 189.907 29.8879ZM203.787 17.9899C203.783 18.1207 203.779 18.2516 203.776 18.3827C203.188 18.4305 202.611 18.4785 202.032 18.5316C201.937 17.9226 201.839 17.4546 201.727 17.1182C201.614 16.7809 201.479 16.5109 201.305 16.3129C201.292 16.2976 201.278 16.2827 201.265 16.2681L201.266 16.2466L201.246 16.2479C201.052 16.0465 200.829 15.9042 200.571 15.8209C200.285 15.7286 199.791 15.6962 199.122 15.7177C199.005 15.7214 198.899 15.7246 198.803 15.7295C198.581 15.7373 198.357 15.7445 198.132 15.7519C198.14 15.6136 198.148 15.4753 198.156 15.337C198.527 15.3235 198.901 15.3123 199.269 15.2994C199.365 15.2945 199.471 15.2913 199.588 15.2876C200.258 15.266 200.752 15.2985 201.037 15.3907C201.322 15.4828 201.564 15.6467 201.771 15.8827C201.946 16.0808 202.08 16.3508 202.193 16.6881C202.306 17.0245 202.403 17.4925 202.499 18.1016C202.927 18.0622 203.354 18.0256 203.787 17.9899ZM198.941 18.4928C199.022 18.2002 199.073 17.8276 199.09 17.3777C199.092 17.3395 199.078 17.3029 199.083 17.263C199.235 17.2522 199.387 17.2421 199.54 17.2323C199.508 17.6577 199.441 18.0017 199.343 18.2612C199.231 18.3594 199.098 18.436 198.941 18.4928ZM200.391 22.8475C200.394 22.9624 200.396 23.0773 200.399 23.1923C199.934 23.2755 199.49 23.356 199.035 23.4393C199.002 22.4863 198.884 21.885 198.704 21.628C198.561 21.4341 198.343 21.333 198.03 21.3257C198.03 21.1962 198.03 21.0668 198.03 20.9376C198.068 20.932 198.106 20.9263 198.145 20.9206C198.652 20.8448 198.979 20.938 199.17 21.1979C199.351 21.4549 199.469 22.0562 199.502 23.0091C199.8 22.9546 200.093 22.9012 200.391 22.8475ZM201.509 24.013C201.634 23.7074 201.738 23.3602 201.802 22.9775C201.9 22.5162 201.958 21.948 201.976 21.278C202.127 21.2573 202.277 21.2366 202.428 21.216C202.401 21.7284 202.348 22.173 202.268 22.5474C202.197 22.9765 202.075 23.3611 201.93 23.6924C201.835 23.7935 201.727 23.8825 201.604 23.9596C201.575 23.9774 201.544 23.9952 201.509 24.013ZM203.886 25.9098C203.89 26.014 203.894 26.1183 203.898 26.2227C200.112 27.1465 196.345 28.18 192.587 29.3098C192.518 28.5647 192.47 27.8198 192.412 27.0748C192.567 27.0377 192.73 26.9971 192.902 26.9532C192.95 27.5953 192.994 28.2375 193.053 28.8797C196.653 27.7975 200.261 26.8036 203.886 25.9098ZM193.783 26.0041C193.789 25.8612 193.787 25.6951 193.777 25.5065C193.775 25.4684 193.765 25.4344 193.769 25.3944C193.693 24.0114 193.67 22.6296 193.666 21.2566C193.662 19.8912 193.715 18.5312 193.767 17.1786C193.789 16.6044 193.737 16.2599 193.64 16.1316C193.546 16.0081 193.302 15.9495 192.908 15.9654C192.779 15.9706 192.654 15.9764 192.534 15.9818L192.54 15.8149C192.562 15.1633 192.597 14.5119 192.628 13.8622L192.91 13.8618C192.884 14.426 192.858 14.9909 192.831 15.5592C193.002 15.552 193.183 15.543 193.374 15.5353C193.768 15.5194 194.012 15.578 194.106 15.7015C194.204 15.8298 194.256 16.1743 194.233 16.7485C194.181 18.101 194.129 19.4611 194.132 20.8265C194.136 22.1995 194.159 23.5813 194.236 24.9643C194.231 25.0043 194.241 25.0383 194.243 25.0764C194.261 25.395 194.253 25.6497 194.225 25.8368C194.11 25.9002 193.961 25.9567 193.783 26.0041ZM211.759 14.9582C211.753 15.1 211.747 15.2418 211.742 15.3836C211.53 15.3853 211.328 15.3874 211.116 15.3912C211.069 15.392 211.025 15.3936 210.982 15.3959C210.983 15.3726 210.979 15.3517 210.981 15.3273C210.989 15.2168 210.999 15.1185 211.013 15.0323C211.143 14.9912 211.332 14.9655 211.582 14.9611C211.642 14.96 211.701 14.9591 211.759 14.9582ZM213.223 21.8691C213.274 21.7507 213.317 21.6235 213.354 21.4878C213.459 21.1033 213.548 20.5893 213.585 19.9328C213.73 19.9205 213.875 19.908 214.021 19.8956C213.976 20.3683 213.904 20.7536 213.821 21.0577C213.773 21.2332 213.713 21.3943 213.643 21.541C213.523 21.6739 213.387 21.7809 213.223 21.8691ZM215.253 23.7449L215.251 24.1021C211.83 24.6354 208.431 25.2516 205.053 25.9533C205.028 25.3687 205.003 24.7866 204.989 24.202C205.145 24.174 205.308 24.1451 205.465 24.118C205.48 24.5865 205.499 25.054 205.519 25.5232C208.744 24.8533 211.989 24.2613 215.253 23.7449ZM206.414 23.1634C206.417 23.0872 206.417 23.005 206.415 22.917C206.391 21.8316 206.381 20.7529 206.394 19.6765C206.408 18.6047 206.462 17.5366 206.516 16.4767C206.539 16.0265 206.501 15.7508 206.404 15.6515C206.303 15.5471 206.051 15.5062 205.658 15.517C205.478 15.522 205.286 15.526 205.116 15.5305C205.152 14.9755 205.177 14.4204 205.201 13.8653L205.648 13.8664C205.629 14.2777 205.609 14.6891 205.583 15.1004C205.753 15.0959 205.944 15.0919 206.124 15.0869C206.518 15.0761 206.769 15.117 206.871 15.2214C206.967 15.3207 207.005 15.5964 206.983 16.0466C206.929 17.1065 206.874 18.1745 206.86 19.2463C206.847 20.3228 206.857 21.4015 206.882 22.4869C206.887 22.7053 206.877 22.8875 206.854 23.0327C206.744 23.0837 206.599 23.127 206.414 23.1634ZM223.068 14.8234C223.063 14.9657 223.059 15.1083 223.056 15.2515C222.865 15.2532 222.685 15.2526 222.505 15.2541C222.447 15.2546 222.391 15.2561 222.339 15.2584L222.346 15.1232C222.35 15.0373 222.357 14.9594 222.367 14.8894C222.505 14.8479 222.705 14.8264 222.971 14.824C223.003 14.8238 223.035 14.8235 223.068 14.8234ZM222.77 22.8185L222.751 23.2015C220.574 23.4285 218.404 23.6849 216.253 23.9603C216.269 23.4772 216.264 22.994 216.28 22.5135C216.428 22.4959 216.576 22.4763 216.738 22.4582C216.732 22.8148 216.731 23.1725 216.72 23.5301C218.723 23.2736 220.743 23.0337 222.77 22.8185ZM217.748 21.5061L217.748 21.4957C217.753 20.5924 217.786 19.6907 217.81 18.792C217.834 17.8972 217.882 17.0065 217.922 16.1181C217.938 15.7523 217.893 15.5295 217.782 15.4314C217.683 15.3443 217.427 15.3016 217.035 15.305C216.855 15.3067 216.664 15.3086 216.494 15.3104C216.519 14.8462 216.532 14.3817 216.557 13.9148L217.003 13.918C216.989 14.2394 216.977 14.5599 216.961 14.8803C217.13 14.8785 217.321 14.8766 217.501 14.8749C217.893 14.8714 218.149 14.9141 218.248 15.0013C218.36 15.0993 218.404 15.3222 218.388 15.688C218.348 16.5764 218.3 17.4671 218.276 18.3619C218.252 19.2606 218.219 20.1623 218.214 21.0655C218.213 21.1928 218.206 21.3049 218.191 21.4018C218.082 21.4452 217.934 21.4803 217.748 21.5061ZM233.112 17.7472C233.124 17.153 233.143 16.5591 233.156 15.9675C233.163 15.634 233.111 15.4352 232.996 15.3608C232.895 15.2955 232.627 15.2565 232.257 15.2531C232.056 15.2513 231.845 15.2511 231.644 15.2501C231.649 14.8525 231.644 14.4574 231.639 14.0624L232.11 14.0685C232.113 14.3184 232.113 14.5687 232.11 14.82C232.311 14.821 232.523 14.8212 232.724 14.8229C233.094 14.8264 233.361 14.8653 233.462 14.9307C233.577 15.0051 233.629 15.2039 233.622 15.5374C233.609 16.1566 233.589 16.7783 233.577 17.4002C233.571 17.7187 233.556 18.0374 233.542 18.356C233.399 18.1532 233.256 17.9503 233.112 17.7472ZM236.49 14.8496C236.491 14.9934 236.491 15.1373 236.49 15.2815C236.352 15.2808 236.225 15.2803 236.098 15.2797C236.06 15.2795 236.024 15.2796 235.989 15.28C235.991 15.2017 235.992 15.1234 235.994 15.0451C235.995 14.9889 235.997 14.9366 236 14.888C236.121 14.8626 236.282 14.8509 236.49 14.8496ZM234.924 21.9854C234.913 22.1236 234.9 22.262 234.888 22.4006C233.623 22.4426 232.345 22.5031 231.087 22.5718C230.445 21.5757 229.781 20.5745 229.1 19.562C228.658 18.9057 228.222 18.2424 227.788 17.576C227.803 17.216 227.817 16.8557 227.833 16.4959C228.406 17.3808 228.981 18.2625 229.566 19.1319C230.248 20.1444 230.911 21.1456 231.553 22.1417C232.669 22.0807 233.8 22.0262 234.924 21.9854ZM228.219 22.3462C228.209 22.4777 228.199 22.6096 228.186 22.742C226.561 22.8701 224.946 23.0012 223.331 23.1402C223.351 22.8567 223.363 22.5743 223.377 22.2923C223.434 22.2864 223.49 22.2805 223.546 22.2746C223.554 22.1164 223.562 21.9588 223.57 21.8014C223.66 21.7938 223.753 21.7872 223.848 21.7807C223.832 22.0898 223.819 22.3993 223.797 22.7101C225.269 22.5834 226.74 22.4634 228.219 22.3462ZM224.915 20.8326C224.945 20.0384 224.953 19.2462 224.977 18.4557C225.002 17.6418 225.043 16.822 225.082 16.0085C225.098 15.6666 225.042 15.4593 224.936 15.3753C224.829 15.2903 224.57 15.2472 224.179 15.2489C223.999 15.2496 223.819 15.2498 223.649 15.2516C223.656 14.943 223.668 14.6343 223.674 14.3257C223.732 14.3255 223.791 14.3251 223.851 14.3246C223.854 14.207 223.857 14.0898 223.86 13.9728L224.138 13.9761C224.132 14.2579 224.121 14.5397 224.115 14.8215C224.285 14.8197 224.465 14.8195 224.645 14.8187C225.037 14.8171 225.296 14.8602 225.403 14.9452C225.508 15.0292 225.565 15.2365 225.548 15.5783C225.51 16.3918 225.468 17.2116 225.443 18.0256C225.418 18.8474 225.41 19.6711 225.377 20.4969C225.374 20.5875 225.366 20.6694 225.354 20.7427C225.245 20.7829 225.097 20.8131 224.915 20.8326Z" fill="#393185"/>
<path fill-rule="evenodd" clip-rule="evenodd" d="M275.999 43.0465V74.5425C275.999 78.072 273.205 80.9597 269.788 80.9597H11.2115C7.79539 80.9597 5.00049 78.072 5.00049 74.5425V43.0465H275.999Z" fill="#393185" stroke="#9D9E9E" stroke-width="0.666709" stroke-miterlimit="22.9256"/>
<path d="M37.0339 61.3253H44.2387L44.5448 59.8414H33.1253C33.3451 58.8197 33.8553 58.0412 34.6558 57.5061C35.4563 56.9709 36.4295 56.7032 37.5754 56.7032H45.9339C46.4362 56.7032 46.8954 56.7722 47.3113 56.91C47.7273 57.0479 48.0805 57.2384 48.3708 57.4817C48.6612 57.725 48.8692 58.0169 48.9948 58.3575C49.1203 58.698 49.1439 59.0711 49.0654 59.4765L47.6763 66.3124C47.5821 66.734 47.4016 67.1151 47.1348 67.4557C46.8679 67.7963 46.5422 68.0882 46.1576 68.3315C45.773 68.5748 45.3414 68.7612 44.8626 68.891C44.3839 69.0207 43.8855 69.0856 43.3675 69.0856H35.0325C34.4988 69.0856 34.0161 69.0248 33.5845 68.9032C33.1528 68.7815 32.7918 68.595 32.5014 68.3437C32.211 68.0923 32.0069 67.772 31.8892 67.3827C31.7715 66.9935 31.7676 66.5232 31.8774 65.9718H43.2969L43.603 64.4878H36.3981L37.0339 61.3253ZM67.3551 65.7772C67.2295 66.4259 67.0098 66.9651 66.6959 67.3949C66.3819 67.8247 66.0091 68.1653 65.5775 68.4166C65.1458 68.668 64.671 68.8424 64.153 68.9397C63.635 69.037 63.1091 69.0856 62.5754 69.0856H50.8264L53.3693 56.7032H65.1419C66.4761 56.7032 67.4454 56.9303 68.0497 57.3844C68.654 57.8385 68.8777 58.4223 68.7208 59.1359L68.6736 59.4279C68.5952 59.8009 68.4068 60.186 68.1086 60.5834C67.8103 60.9807 67.4337 61.2929 66.9785 61.52C66.8686 61.5686 66.7743 61.6173 66.6959 61.6659C66.6174 61.7146 66.5154 61.7551 66.3898 61.7876C66.484 61.8362 66.5703 61.8808 66.6488 61.9214C66.7273 61.9619 66.8136 62.0146 66.9078 62.0795C67.2374 62.3065 67.4728 62.5944 67.6141 62.9431C67.7554 63.2918 67.7868 63.677 67.7083 64.0986L67.3551 65.7772ZM56.2183 64.4878L55.9122 65.9718H62.9051L63.2112 64.4878H56.2183ZM64.153 59.8414H57.16L56.854 61.3253H63.8469L64.153 59.8414ZM81.8305 69.0856L82.7723 64.4878H75.8029L75.4968 65.9718C75.3556 66.6205 75.1594 67.1192 74.9082 67.4679C74.6571 67.8166 74.3039 68.1207 73.8487 68.3801C73.4562 68.591 73.0128 68.7612 72.5184 68.891C72.0239 69.0207 71.5099 69.0856 70.9762 69.0856H70.4346L72.3654 59.6225C72.4752 59.1197 72.6675 58.6859 72.9422 58.321C73.2169 57.9561 73.5504 57.652 73.9428 57.4087C74.3353 57.1655 74.7709 56.9871 75.2496 56.8735C75.7284 56.76 76.2189 56.7032 76.7212 56.7032H88.8705L86.3277 69.0856H81.8305ZM83.7141 59.8414H76.7447L76.4387 61.3253H83.4081L83.7141 59.8414ZM102.098 69.0856C101.674 69.0856 101.313 69.0572 101.015 69.0005C100.717 68.9437 100.458 68.8667 100.238 68.7694C100.018 68.6721 99.8298 68.5626 99.6729 68.441C99.5159 68.3193 99.3668 68.1936 99.2255 68.0639L98.9665 67.8449L95.5054 64.1229L95.0109 66.507C94.9167 66.9935 94.7323 67.399 94.4576 67.7233C94.1829 68.0477 93.8533 68.3112 93.4687 68.5139C93.0841 68.7166 92.6564 68.8626 92.1855 68.9518C91.7146 69.041 91.228 69.0856 90.7257 69.0856H90.0429L92.5857 56.7032H97.0358L96.0705 61.3253L101.462 56.7032H106.595L99.9554 62.5174L105.889 69.0856H102.098ZM123.943 66.3853C123.817 66.9692 123.586 67.4354 123.248 67.7841C122.911 68.1328 122.519 68.4045 122.071 68.5991C121.624 68.7937 121.153 68.9235 120.659 68.9883C120.164 69.0532 119.705 69.0856 119.281 69.0856H111.04L111.158 68.5018C111.284 67.8693 111.535 67.3787 111.911 67.03C112.288 66.6813 112.7 66.43 113.148 66.2759C113.595 66.1218 114.034 66.0326 114.466 66.0083C114.898 65.9839 115.239 65.9718 115.49 65.9718H119.587L119.893 64.4878H112.288C112.225 64.4878 112.159 64.4919 112.088 64.5C112.017 64.5081 111.943 64.5122 111.864 64.5122C111.55 64.5284 111.197 64.5243 110.805 64.5C110.412 64.4757 110.055 64.3946 109.734 64.2568C109.412 64.1189 109.161 63.8959 108.98 63.5878C108.8 63.2796 108.772 62.8417 108.898 62.2741L110.028 56.7276H110.687C110.954 56.7276 111.303 56.7397 111.735 56.7641C112.167 56.7884 112.571 56.8776 112.947 57.0317C113.324 57.1857 113.626 57.429 113.854 57.7615C114.082 58.0939 114.133 58.5602 114.007 59.1603L113.56 61.3253H120.529L121.494 56.7032H125.944L123.943 66.3853ZM138.536 69.0856L139.478 64.4878H132.509L132.202 65.9718C132.061 66.6205 131.865 67.1192 131.614 67.4679C131.363 67.8166 131.01 68.1207 130.554 68.3801C130.162 68.591 129.718 68.7612 129.224 68.891C128.73 69.0207 128.215 69.0856 127.682 69.0856H127.14L129.071 59.6225C129.181 59.1197 129.373 58.6859 129.648 58.321C129.922 57.9561 130.256 57.652 130.649 57.4087C131.041 57.1655 131.477 56.9871 131.955 56.8735C132.434 56.76 132.925 56.7032 133.427 56.7032H145.576L143.033 69.0856H138.536ZM140.42 59.8414H133.45L133.144 61.3253H140.114L140.42 59.8414ZM165.114 57.5547C164.988 58.1386 164.772 58.5845 164.466 58.8927C164.16 59.2008 163.815 59.4279 163.43 59.5738C163.046 59.7198 162.657 59.8009 162.265 59.8171C161.872 59.8333 161.535 59.8414 161.252 59.8414H158.945L157.626 66.3124C157.517 66.8151 157.375 67.2408 157.203 67.5895C157.03 67.9382 156.802 68.222 156.52 68.441C156.237 68.6599 155.892 68.8221 155.484 68.9275C155.076 69.0329 154.581 69.0856 154 69.0856H152.564L154.448 59.8414H148.656L148.797 59.1603C149.001 58.2034 149.393 57.5547 149.974 57.2141C150.555 56.8735 151.324 56.7032 152.282 56.7032H165.302L165.114 57.5547ZM182.909 66.3853C182.815 66.8556 182.634 67.257 182.367 67.5895C182.101 67.922 181.775 68.2017 181.39 68.4288C181.006 68.6559 180.57 68.8221 180.084 68.9275C179.597 69.0329 179.095 69.0856 178.577 69.0856H170.218C169.7 69.0856 169.229 69.0207 168.805 68.891C168.382 68.7612 168.025 68.5748 167.734 68.3315C167.444 68.0882 167.236 67.8004 167.11 67.4679C166.985 67.1354 166.969 66.7584 167.063 66.3367L168.476 59.4279C168.554 59.0224 168.727 58.6494 168.994 58.3088C169.261 57.9682 169.586 57.6804 169.971 57.4452C170.356 57.21 170.787 57.0276 171.266 56.8979C171.745 56.7681 172.243 56.7032 172.761 56.7032H181.12C182.25 56.7032 183.113 56.9344 183.71 57.3966C184.306 57.8588 184.51 58.5521 184.322 59.4765L182.909 66.3853ZM179.801 59.8414H172.832L171.584 65.9718H178.553L179.801 59.8414ZM203.459 61.6659C203.271 62.6228 202.717 63.3323 201.799 63.7945C200.881 64.2567 199.715 64.4878 198.303 64.4878H192.322C192.385 64.1473 192.503 63.7905 192.675 63.4174C192.848 63.0444 193.068 62.7039 193.335 62.3957C193.601 62.0876 193.915 61.8322 194.276 61.6294C194.637 61.4267 195.046 61.3253 195.501 61.3253H199.056L199.362 59.8414H192.416L191.145 65.9961C190.909 67.2449 190.36 68.0963 189.497 68.5504C189.104 68.7775 188.677 68.9235 188.214 68.9883C187.751 69.0532 187.283 69.0856 186.813 69.0856H186.083L188.626 56.7032H200.704C201.834 56.7032 202.698 56.9384 203.294 57.4087C203.891 57.8791 204.095 58.5764 203.906 59.5008L203.459 61.6659ZM30.2764 71.2972H203.294V72.4029H30.2764V71.2972Z" fill="#FEFEFE"/>
<path fill-rule="evenodd" clip-rule="evenodd" d="M232.987 46.0522C240.85 46.0522 247.224 52.638 247.224 60.7619C247.224 68.8858 240.85 75.4715 232.987 75.4715C225.124 75.4715 218.75 68.8858 218.75 60.7619C218.75 52.638 225.124 46.0522 232.987 46.0522Z" fill="#FEFEFE"/>
<path fill-rule="evenodd" clip-rule="evenodd" d="M227.863 71.0833C227.244 68.7281 227.386 70.7133 224.688 67.6456C222.401 65.0449 221.662 61.0919 222.78 57.7725C225.586 49.4421 239.415 48.887 240.601 60.9983H238.894L242.002 64.9781L244.924 60.9983H243.048C242.58 52.6602 235.694 48.7802 229.737 50.188C227.223 50.7823 224.963 52.3287 223.457 54.493C219.482 60.2062 221.822 68.8104 227.863 71.0833Z" fill="#393185"/>
<path d="M225.041 63.685V62.0033C225.041 61.4098 225.124 60.9729 225.288 60.6926C225.451 60.4123 225.748 60.2326 226.178 60.1535L228.746 59.8765C228.976 59.8435 229.14 59.7842 229.241 59.7001C229.341 59.6144 229.391 59.4511 229.391 59.2088L229.384 59.0703C229.384 58.8148 229.339 58.6433 229.248 58.5543C229.157 58.4669 228.979 58.4224 228.709 58.4224H227.947L227.083 58.4422C226.946 58.4422 226.827 58.4636 226.727 58.5064C226.627 58.5493 226.553 58.6169 226.504 58.7093C226.455 58.8016 226.424 58.8906 226.412 58.9763C226.4 59.0621 226.393 59.161 226.393 59.2731V59.5006H225.041L225.034 59.0357C225.034 58.1718 225.164 57.6343 225.424 57.4233C225.682 57.2122 226.155 57.1067 226.839 57.1067L228.483 57.0671L229.306 57.0869C229.853 57.0869 230.236 57.2304 230.453 57.5156C230.671 57.8025 230.78 58.3136 230.78 59.0505C230.78 59.8864 230.675 60.4634 230.464 60.7833C230.253 61.1015 229.842 61.2614 229.23 61.2614L228.017 61.3702L226.989 61.4691C226.793 61.4691 226.642 61.5021 226.537 61.5681C226.431 61.634 226.379 61.7989 226.379 62.0627V62.3495H230.78V63.685H225.041ZM237.951 61.0339V62.3693H237.158V63.685H235.791V62.3693H231.889V60.0645L235.033 57.0869H237.158V61.0339H237.951ZM233.261 61.0339H235.791V58.5707L233.261 61.0339Z" fill="#393185"/>
</svg>
